<?xml version="1.0" encoding="UTF-8"?>
<svg width="150px" height="38px" viewBox="0 0 150 38" version="1.1" xmlns="http://www.w3.org/2000/svg" xmlns:xlink="http://www.w3.org/1999/xlink">
    <!-- Generator: Sketch 50.2 (55047) - http://www.bohemiancoding.com/sketch -->
    <title>GDG_2018_purple Copy</title>
    <desc>Created with Sketch.</desc>
    <defs></defs>
    <g id="Page-1" stroke="none" stroke-width="1" fill="none" fill-rule="evenodd">
        <g id="GDG_2018_purple-Copy" fill="#673AB7">
            <path d="M49.2014303,9.34776435 C49.2014303,11.3034387 48.6293206,12.8823317 47.4672229,14.0306175 C46.1442193,15.4121489 44.4278903,16.1118856 42.318236,16.1118856 C40.2979738,16.1118856 38.5816448,15.4121489 37.1692491,13.9947336 C35.7568534,12.5952602 35.0417163,10.8369475 35.0417163,8.77362144 C35.0417163,6.71029533 35.7568534,4.95198265 37.1692491,3.55250929 C38.5816448,2.15303594 40.2979738,1.43535729 42.318236,1.43535729 C43.3194279,1.43535729 44.2848629,1.63271892 45.1966627,2.02744217 C46.1084625,2.42216543 46.8414779,2.94248245 47.3778308,3.60633519 L46.1442193,4.84433086 C45.2145411,3.73192895 43.9451728,3.175728 42.318236,3.175728 C40.852205,3.175728 39.5649583,3.69604502 38.4922527,4.73667906 C37.4195471,5.77731309 36.8831943,7.12296055 36.8831943,8.7915634 C36.8831943,10.4601663 37.4195471,11.8058137 38.4922527,12.8464477 C39.5649583,13.8870818 40.8343266,14.4073988 42.318236,14.4073988 C43.8915375,14.4073988 45.1787843,13.8870818 46.2336114,12.8285058 C46.9129917,12.1467111 47.306317,11.1957869 47.4135876,9.97573317 L42.318236,9.97573317 L42.318236,8.28918835 L49.1120381,8.28918835 C49.1656734,8.66596964 49.2014303,9.006867 49.2014303,9.34776435 Z M50.9713945,15.8068722 L50.9713945,1.75831268 L55.2622169,1.75831268 C57.4076281,1.75831268 59.1418355,2.40422346 60.4290822,3.71398699 C61.716329,5.02375052 62.3599523,6.71029533 62.3599523,8.7915634 C62.3599523,10.8728315 61.716329,12.5593763 60.4290822,13.8691398 C59.1418355,15.1789033 57.4255066,15.8248141 55.2622169,15.8248141 L50.9713945,15.8068722 Z M52.7771156,14.0844434 L55.2622169,14.0844434 C56.8712753,14.0844434 58.1585221,13.6179523 59.1060787,12.6849701 C60.0536353,11.7519878 60.5184744,10.4601663 60.5184744,8.77362144 C60.5184744,7.10501859 60.0536353,5.81319703 59.1060787,4.88021479 C58.1585221,3.94723255 56.8712753,3.48074143 55.2622169,3.48074143 L52.7771156,3.48074143 L52.7771156,14.0844434 Z M77.6281287,9.34776435 C77.6281287,11.3034387 77.0560191,12.8823317 75.8939213,14.0306175 C74.5709178,15.4121489 72.8545888,16.1118856 70.7449344,16.1118856 C68.7246722,16.1118856 67.0083433,15.4121489 65.5959476,13.9947336 C64.1835518,12.5952602 63.4684148,10.8369475 63.4684148,8.77362144 C63.4684148,6.71029533 64.1835518,4.95198265 65.5959476,3.55250929 C67.0083433,2.15303594 68.7246722,1.43535729 70.7449344,1.43535729 C71.7461263,1.43535729 72.7115614,1.63271892 73.6233611,2.02744217 C74.5351609,2.42216543 75.2681764,2.94248245 75.8045292,3.60633519 L74.5709178,4.84433086 C73.6412396,3.73192895 72.3718713,3.175728 70.7449344,3.175728 C69.2789035,3.175728 67.9916567,3.69604502 66.9189511,4.73667906 C65.8462455,5.77731309 65.3098927,7.12296055 65.3098927,8.7915634 C65.3098927,10.4601663 65.8462455,11.8058137 66.9189511,12.8464477 C67.9916567,13.8870818 69.261025,14.4073988 70.7449344,14.4073988 C72.318236,14.4073988 73.6054827,13.8870818 74.6603099,12.8285058 C75.3396901,12.1467111 75.7330155,11.1957869 75.8402861,9.97573317 L70.7449344,9.97573317 L70.7449344,8.28918835 L77.5387366,8.28918835 C77.5923719,8.66596964 77.6281287,9.006867 77.6281287,9.34776435 Z M84.1179976,15.8068722 L84.1179976,1.75831268 L88.40882,1.75831268 C90.5542312,1.75831268 92.2884386,2.40422346 93.5756853,3.71398699 C94.8629321,5.02375052 95.5065554,6.71029533 95.5065554,8.7915634 C95.5065554,10.8728315 94.8629321,12.5593763 93.5756853,13.8691398 C92.2884386,15.1789033 90.5721097,15.8248141 88.40882,15.8248141 L84.1179976,15.8068722 Z M85.9237187,14.0844434 L88.40882,14.0844434 C90.0178784,14.0844434 91.3051251,13.6179523 92.2526818,12.6849701 C93.2002384,11.7519878 93.6650775,10.4601663 93.6650775,8.77362144 C93.6650775,7.10501859 93.2002384,5.81319703 92.2526818,4.88021479 C91.3051251,3.94723255 90.0178784,3.48074143 88.40882,3.48074143 L85.9237187,3.48074143 L85.9237187,14.0844434 Z M101.388558,16.1298276 C99.9404052,16.1298276 98.7604291,15.6453945 97.8665077,14.6765283 C96.954708,13.7076621 96.5077473,12.4876084 96.5077473,10.9984252 C96.5077473,9.59895188 96.954708,8.39684015 97.8307509,7.39209005 C98.7067938,6.38733994 99.8331347,5.88496489 101.209774,5.88496489 C102.622169,5.88496489 103.766389,6.35145601 104.624553,7.28443825 C105.482718,8.21742049 105.9118,9.45541615 105.9118,11.0163672 L105.893921,11.3572646 L98.3313468,11.3572646 C98.3849821,12.3261307 98.7067938,13.0976353 99.2967819,13.6538362 C99.88677,14.2100372 100.584029,14.4971086 101.370679,14.4971086 C102.657926,14.4971086 103.533969,13.9409077 103.998808,12.8464477 L105.607867,13.5103005 C105.286055,14.2638631 104.785459,14.8738899 104.070322,15.376265 C103.319428,15.87864 102.443385,16.1298276 101.388558,16.1298276 Z M103.98093,9.85013941 C103.945173,9.29393846 103.694875,8.77362144 103.230036,8.27124639 C102.765197,7.76887133 102.085816,7.51768381 101.174017,7.51768381 C100.512515,7.51768381 99.9404052,7.7329874 99.4398093,8.14565262 C98.9570918,8.55831784 98.6174017,9.13246076 98.4386174,9.83219744 L103.98093,9.85013941 Z M109.666269,15.8068722 L105.786651,6.18997831 L107.753278,6.18997831 L110.578069,13.6538362 L110.613826,13.6538362 L113.474374,6.18997831 L115.387366,6.18997831 L111.47199,15.8068722 L109.666269,15.8068722 Z M118.230036,15.8068722 L116.424315,15.8068722 L116.424315,1.75831268 L124.594756,1.75831268 L124.594756,3.48074143 L118.212157,3.48074143 L118.212157,8.09182672 L123.969011,8.09182672 L123.969011,9.77837154 L118.212157,9.77837154 L118.230036,15.8068722 Z M130.047676,16.1298276 C128.599523,16.1298276 127.419547,15.6453945 126.525626,14.6765283 C125.613826,13.7076621 125.166865,12.4876084 125.166865,10.9984252 C125.166865,9.59895188 125.613826,8.39684015 126.489869,7.39209005 C127.365912,6.38733994 128.492253,5.88496489 129.868892,5.88496489 C131.281287,5.88496489 132.425507,6.35145601 133.283671,7.28443825 C134.141836,8.21742049 134.570918,9.45541615 134.570918,11.0163672 L134.553039,11.3572646 L126.990465,11.3572646 C127.0441,12.3261307 127.365912,13.0976353 127.9559,13.6538362 C128.545888,14.2100372 129.243147,14.4971086 130.029797,14.4971086 C131.317044,14.4971086 132.193087,13.9409077 132.657926,12.8464477 L134.266985,13.5103005 C133.945173,14.2638631 133.444577,14.8738899 132.72944,15.376265 C131.960667,15.87864 131.084625,16.1298276 130.047676,16.1298276 Z M132.622169,9.85013941 C132.586412,9.29393846 132.336114,8.77362144 131.871275,8.27124639 C131.406436,7.76887133 130.727056,7.51768381 129.815256,7.51768381 C129.153754,7.51768381 128.581645,7.7329874 128.081049,8.14565262 C127.598331,8.55831784 127.258641,9.13246076 127.079857,9.83219744 L132.622169,9.85013941 Z M139.308701,16.1298276 C138.235995,16.1298276 137.359952,15.8606981 136.662694,15.340381 C135.965435,14.820064 135.446961,14.1562113 135.125149,13.3847067 L136.734207,12.720854 C137.234803,13.9229657 138.110846,14.5329926 139.326579,14.5329926 C139.88081,14.5329926 140.34565,14.4073988 140.703218,14.1562113 C141.060787,13.9050238 141.239571,13.5820684 141.239571,13.1694031 C141.239571,12.5414343 140.810489,12.1108271 139.934446,11.8955235 L138.003576,11.4290324 C137.395709,11.2675547 136.805721,10.9804833 136.269368,10.5319341 C135.715137,10.1013269 135.446961,9.50924205 135.446961,8.75567947 C135.446961,7.91240706 135.822408,7.21267038 136.573302,6.69235337 C137.324195,6.15409438 138.218117,5.90290686 139.237187,5.90290686 C140.077473,5.90290686 140.846246,6.10026848 141.507747,6.47704977 C142.169249,6.87177303 142.651967,7.41003201 142.938021,8.12771066 L141.36472,8.77362144 C141.007151,7.93034903 140.274136,7.49974184 139.183552,7.49974184 C138.647199,7.49974184 138.200238,7.60739364 137.84267,7.8406392 C137.485101,8.05594279 137.288439,8.36095622 137.288439,8.73773751 C137.288439,9.29393846 137.717521,9.65277778 138.557807,9.85013941 L140.45292,10.2986886 C141.346841,10.5139922 142.026222,10.8728315 142.455304,11.3752065 C142.884386,11.8775816 143.098927,12.4696665 143.098927,13.0976353 C143.098927,13.9588496 142.741359,14.6765283 142.0441,15.2506712 C141.328963,15.8427561 140.417163,16.1298276 139.308701,16.1298276 Z M148.498212,15.9683499 C147.49702,15.9683499 146.728248,15.6992204 146.191895,15.1609614 C145.655542,14.6227024 145.405244,13.8691398 145.405244,12.8823317 L145.405244,7.8406392 L143.724672,7.8406392 L143.724672,6.18997831 L145.405244,6.18997831 L145.405244,3.24749587 L147.210965,3.24749587 L147.210965,6.18997831 L149.553039,6.18997831 L149.553039,7.8406392 L147.210965,7.8406392 L147.210965,12.738796 C147.210965,13.77943 147.640048,14.317689 148.498212,14.317689 C148.820024,14.317689 149.106079,14.2638631 149.32062,14.1562113 L149.946365,15.6992204 C149.553039,15.87864 149.070322,15.9683499 148.498212,15.9683499 Z" id="XMLID_7_" fill-rule="nonzero"></path>
            <path d="M17.9967427,20.7575496 L19.5439739,18.0770471 C19.8208469,17.6194004 20,17.0636864 20,16.4752835 C20,15.8868805 19.8534202,15.3475111 19.5439739,14.8735198 L10.9609121,0 L6.02605863,0 L17.9967427,20.7575496 Z M8.85993485,17.2925098 L0,32.6890545 L4.91856678,32.6890545 L11.3355049,21.5747759 L8.85993485,17.2925098 Z M15.0651466,25.824353 L17.3289902,21.918011 L4.73941368,0 L0.228013029,0 L15.0651466,25.824353 Z M11.9869707,22.7352374 L6.23778502,32.6890545 L11.1237785,32.6890545 L14.4299674,26.9684699 L11.9869707,22.7352374 Z" id="Shape" fill-rule="nonzero"></path>
            <g id="Group-3" transform="translate(35.041716, 18.736163)">
                <path d="M60.4290822,12.7023285 L65.8681071,7.28618868 C66.059623,7.1069302 66.2447523,6.91166943 66.4235005,6.70040051 C66.6022486,6.48913159 66.7618428,6.26826284 66.9022879,6.03778765 C67.0427329,5.80731246 67.1544488,5.56403675 67.237439,5.3079532 C67.3204293,5.05186966 67.3619238,4.78298597 67.3619238,4.50129408 C67.3619238,4.16838547 67.301278,3.86749182 67.1799845,3.5986041 C67.0586911,3.32971638 66.8927132,3.10244565 66.6820456,2.91678508 C66.4713781,2.73112451 66.2224112,2.58707968 65.9351373,2.48464626 C65.6478634,2.38221284 65.3446344,2.3309969 65.0254413,2.3309969 C64.3615194,2.3309969 63.8125154,2.51665468 63.3784126,2.88797582 C62.9443099,3.25929696 62.6698078,3.77145636 62.5548983,4.4244694 L60.5631427,4.25161387 C60.6525168,3.64981754 60.8280704,3.12805515 61.0898088,2.68631104 C61.3515473,2.24456693 61.6771194,1.87645236 62.0665351,1.58195628 C62.4559508,1.28746021 62.9028146,1.06979246 63.4071399,0.928946512 C63.9114651,0.788100563 64.4572773,0.717678645 65.0445928,0.717678645 C65.6319082,0.717678645 66.1841042,0.797703552 66.7011971,0.957755767 C67.2182901,1.11780798 67.6715377,1.35468171 68.0609534,1.66838405 C68.4503691,1.98208639 68.7567899,2.37260793 68.9802252,2.8399604 C69.2036604,3.30731286 69.3153763,3.85468323 69.3153763,4.48208791 C69.3153763,4.93023411 69.2483468,5.34956462 69.1142856,5.74009202 C68.9802245,6.13061943 68.8046709,6.498734 68.5876195,6.84444678 C68.3705681,7.19015956 68.1216012,7.51666118 67.8407112,7.82396144 C67.5598211,8.13126169 67.2661678,8.43215534 66.9597423,8.72665141 L62.4974438,13.0480396 L69.3153763,13.0480396 L69.3153763,14.6613579 L60.4290822,14.6613579 L60.4290822,12.7023285 Z M71.1630767,7.86237378 C71.1630767,7.36301087 71.1886117,6.84444947 71.2396827,6.30667403 C71.2907536,5.76889859 71.3833182,5.2407342 71.5173793,4.72216503 C71.6514405,4.20359585 71.830186,3.70744143 72.0536212,3.23368688 C72.2770565,2.75993232 72.564326,2.3470038 72.9154385,1.99488893 C73.2665511,1.64277406 73.681496,1.36108639 74.1602858,1.14981746 C74.6390756,0.93854854 75.1976553,0.832915663 75.8360417,0.832915663 C76.4744281,0.832915663 77.0330078,0.93854854 77.5117976,1.14981746 C77.9905874,1.36108639 78.4055323,1.64277406 78.7566448,1.99488893 C79.1077573,2.3470038 79.3950269,2.75993232 79.6184621,3.23368688 C79.8418973,3.70744143 80.0206429,4.20359585 80.154704,4.72216503 C80.2887651,5.2407342 80.3813298,5.76889859 80.4324007,6.30667403 C80.4834716,6.84444947 80.5090067,7.36301087 80.5090067,7.86237378 C80.5090067,8.5794077 80.445169,9.3476468 80.3174917,10.1671141 C80.1898144,10.9865815 79.953615,11.7484186 79.6088864,12.4526483 C79.2641577,13.1568781 78.788567,13.7394594 78.1820999,14.2004098 C77.5756328,14.6613602 76.7936213,14.8918319 75.8360417,14.8918319 C74.8784621,14.8918319 74.0964505,14.6613602 73.4899834,14.2004098 C72.8835164,13.7394594 72.4079256,13.1568781 72.063197,12.4526483 C71.7184683,11.7484186 71.4822689,10.9865815 71.3545916,10.1671141 C71.2269144,9.3476468 71.1630767,8.5794077 71.1630767,7.86237378 Z M73.0016203,7.86237378 C73.0016203,8.31051998 73.0303472,8.84188536 73.087802,9.45648586 C73.1452568,10.0710864 73.2697403,10.6632707 73.4612562,11.2330566 C73.6527721,11.8028424 73.9368498,12.2861929 74.3134977,12.6831224 C74.6901457,13.0800519 75.1976553,13.2785136 75.8360417,13.2785136 C76.4744281,13.2785136 76.9819376,13.0800519 77.3585856,12.6831224 C77.7352336,12.2861929 78.0193112,11.8028424 78.2108272,11.2330566 C78.4023431,10.6632707 78.5268266,10.0710864 78.5842813,9.45648586 C78.6417361,8.84188536 78.6704631,8.31051998 78.6704631,7.86237378 C78.6704631,7.55507352 78.6608874,7.20616493 78.6417358,6.81563753 C78.6225842,6.42511012 78.5778978,6.02818659 78.5076753,5.624855 C78.4374528,5.22152342 78.3385044,4.83100188 78.2108272,4.45327865 C78.0831499,4.07555543 77.91398,3.73624982 77.7033125,3.43535166 C77.492645,3.1344535 77.2341024,2.89437877 76.9276769,2.71512029 C76.6212515,2.53586181 76.2573767,2.44623392 75.8360417,2.44623392 C75.4147067,2.44623392 75.0508319,2.53586181 74.7444064,2.71512029 C74.4379809,2.89437877 74.1794383,3.1344535 73.9687708,3.43535166 C73.7581033,3.73624982 73.5889335,4.07555543 73.4612562,4.45327865 C73.3335789,4.83100188 73.2346305,5.22152342 73.164408,5.624855 C73.0941855,6.02818659 73.0494991,6.42511012 73.0303475,6.81563753 C73.0111959,7.20616493 73.0016203,7.55507352 73.0016203,7.86237378 Z M85.8805822,3.17606837 L83.3908878,5.48080873 L82.318404,4.19399536 L86.0912487,1.0633897 L87.7191259,1.0633897 L87.7191259,14.6613579 L85.8805822,14.6613579 L85.8805822,3.17606837 Z M95.5164097,14.8918319 C94.9035588,14.8918319 94.3258277,14.799003 93.7831993,14.6133424 C93.2405709,14.4276819 92.7713639,14.1555972 92.3755644,13.7970802 C91.9797648,13.4385633 91.6669602,13.0032278 91.4371411,12.4910607 C91.207322,11.9788936 91.0924141,11.4027143 91.0924141,10.7625054 C91.0924141,10.3399676 91.1594437,9.94944601 91.2935048,9.59092905 C91.427566,9.23241209 91.6095034,8.90911146 91.8393225,8.62101748 C92.0691416,8.33292349 92.3404517,8.08964778 92.6532611,7.89118303 C92.9660704,7.69271828 93.307602,7.54227146 93.6778661,7.43983804 L93.6778661,7.38221953 C93.4225115,7.31819865 93.1671608,7.20296278 92.9118063,7.03650848 C92.6564517,6.87005418 92.4298279,6.65878842 92.2319281,6.40270488 C92.0340284,6.14662133 91.8712423,5.8361247 91.743565,5.47120565 C91.6158877,5.1062866 91.55205,4.68695609 91.55205,4.21320153 C91.55205,3.70103445 91.6573822,3.23688999 91.8680497,2.82075423 C92.0787172,2.40461847 92.3659868,2.04930788 92.729867,1.75481181 C93.0937473,1.46031573 93.515076,1.233045 93.9938658,1.07299278 C94.4726556,0.91294057 94.9801651,0.832915663 95.5164097,0.832915663 C96.0526543,0.832915663 96.5601638,0.91294057 97.0389536,1.07299278 C97.5177434,1.233045 97.9390721,1.46031573 98.3029523,1.75481181 C98.6668326,2.04930788 98.9541022,2.40461847 99.1647697,2.82075423 C99.3754372,3.23688999 99.4807693,3.70103445 99.4807693,4.21320153 C99.4807693,4.68695609 99.4169317,5.1062866 99.2892544,5.47120565 C99.1615771,5.8361247 98.998791,6.14662133 98.8008912,6.40270488 C98.6029915,6.65878842 98.3763677,6.87005418 98.1210131,7.03650848 C97.8656586,7.20296278 97.6103079,7.31819865 97.3549533,7.38221953 L97.3549533,7.43983804 C97.7252174,7.54227146 98.066749,7.69271828 98.3795583,7.89118303 C98.6923677,8.08964778 98.9636778,8.33292349 99.1934969,8.62101748 C99.423316,8.90911146 99.6052534,9.23241209 99.7393145,9.59092905 C99.8733757,9.94944601 99.9404052,10.3399676 99.9404052,10.7625054 C99.9404052,11.4027143 99.8254974,11.9788936 99.5956783,12.4910607 C99.3658592,13.0032278 99.0530546,13.4385633 98.657255,13.7970802 C98.2614555,14.1555972 97.7922485,14.4276819 97.2496201,14.6133424 C96.7069916,14.799003 96.1292606,14.8918319 95.5164097,14.8918319 Z M93.3905936,4.48208791 C93.3905936,4.75097563 93.4384719,5.01345732 93.5342299,5.26954087 C93.6299878,5.52562441 93.7672388,5.75289514 93.945987,5.95135989 C94.1247352,6.14982464 94.3449752,6.31307545 94.6067136,6.44111722 C94.8684521,6.56915899 95.171681,6.63317891 95.5164097,6.63317891 C95.8739061,6.63317891 96.1835188,6.57235999 96.4452572,6.4507203 C96.7069957,6.32908062 96.9272357,6.16903081 97.1059839,5.97056606 C97.284732,5.77210131 97.4187912,5.54483058 97.5081653,5.28874704 C97.5975394,5.03266349 97.6422257,4.7637798 97.6422257,4.48208791 C97.6422257,3.85468323 97.4475208,3.33932283 97.0581051,2.93599125 C96.6686894,2.53265967 96.1547961,2.3309969 95.5164097,2.3309969 C94.9290942,2.3309969 94.4279684,2.52945867 94.0130173,2.92638816 C93.5980661,3.32331765 93.3905936,3.84187905 93.3905936,4.48208791 Z M95.5164097,13.2785136 C96.2824734,13.2785136 96.9048908,13.0448409 97.3836805,12.5774884 C97.8624703,12.110136 98.1018616,11.5051477 98.1018616,10.7625054 C98.1018616,10.3527717 98.0348321,9.99105915 97.9007709,9.67735681 C97.7667098,9.36365447 97.5815805,9.10117278 97.3453776,8.88990385 C97.1091746,8.67863493 96.8346726,8.51858512 96.5218632,8.40974961 C96.2090539,8.30091411 95.8739061,8.24649717 95.5164097,8.24649717 C94.7631138,8.25930135 94.1438882,8.49937607 93.6587146,8.96672853 C93.1735409,9.434081 92.9309577,10.0326673 92.9309577,10.7625054 C92.9309577,11.1594349 93.0011792,11.5147455 93.1416242,11.8284478 C93.2820692,12.1421502 93.4703904,12.4046319 93.7065933,12.6159008 C93.9427963,12.8271697 94.2172983,12.9904205 94.5301077,13.1056581 C94.842917,13.2208957 95.171681,13.2785136 95.5164097,13.2785136 Z" id="2018"></path>
                <g id="Gorky-Copy">
                    <path d="M13.9611707,8.06192284 C13.9611707,9.99802039 13.397083,11.5611083 12.2512799,12.6978995 C10.9468271,14.0656015 9.25456394,14.7583336 7.17449052,14.7583336 C5.18255581,14.7583336 3.49029269,14.0656015 2.09770116,12.6623748 C0.705109634,11.2769105 0,9.53619896 0,7.49352723 C0,5.45085551 0.705109634,3.71014395 2.09770116,2.32467965 C3.49029269,0.93921535 5.18255581,0.228720836 7.17449052,0.228720836 C8.16164401,0.228720836 9.11354202,0.424106828 10.0125568,0.81487881 C10.9115716,1.20565079 11.634309,1.72075931 12.1631412,2.37796674 L10.9468271,3.60356977 C10.0301845,2.50230328 8.77861494,1.95167003 7.17449052,1.95167003 C5.72901577,1.95167003 4.45981843,2.46677855 3.40215398,3.4969956 C2.34448953,4.52721264 1.81565731,5.85938985 1.81565731,7.5112896 C1.81565731,9.16318934 2.34448953,10.4953666 3.40215398,11.5255836 C4.45981843,12.5558006 5.71138803,13.0709092 7.17449052,13.0709092 C8.72573172,13.0709092 9.99492906,12.5558006 11.0349658,11.5078212 C11.7048199,10.8328514 12.0926302,9.89144622 12.1983967,8.68360554 L7.17449052,8.68360554 L7.17449052,7.01394344 L13.873032,7.01394344 C13.9259153,7.38695306 13.9611707,7.72443795 13.9611707,8.06192284 Z" id="XMLID_2_" fill-rule="nonzero"></path>
                    <path d="M15.7447776,9.89217618 C15.7447776,9.21550205 15.8725845,8.58438276 16.1282022,7.99879937 C16.3838199,7.41321599 16.7344697,6.89921162 17.1801621,6.45677084 C17.6258545,6.01433006 18.1501907,5.6662385 18.7531863,5.4124857 C19.3561819,5.1587329 20.0050478,5.0318584 20.6998036,5.0318584 C21.3945594,5.0318584 22.0434254,5.1587329 22.646421,5.4124857 C23.2494166,5.6662385 23.7737527,6.01433006 24.2194451,6.45677084 C24.6651375,6.89921162 25.0157873,7.41321599 25.271405,7.99879937 C25.5270227,8.58438276 25.6548296,9.21550205 25.6548296,9.89217618 C25.6548296,10.5688503 25.5270227,11.2032228 25.271405,11.7953127 C25.0157873,12.3874025 24.6651375,12.9014069 24.2194451,13.3373412 C23.7737527,13.7732755 23.2494166,14.1181139 22.646421,14.3718667 C22.0434254,14.6256195 21.3945594,14.752494 20.6998036,14.752494 C20.0050478,14.752494 19.3561819,14.6256195 18.7531863,14.3718667 C18.1501907,14.1181139 17.6258545,13.7732755 17.1801621,13.3373412 C16.7344697,12.9014069 16.3838199,12.3874025 16.1282022,11.7953127 C15.8725845,11.2032228 15.7447776,10.5688503 15.7447776,9.89217618 Z M17.6324066,9.89217618 C17.6324066,10.3606429 17.7045028,10.7933174 17.8486974,11.1902129 C17.992892,11.5871083 18.1960722,11.9254402 18.4582442,12.205219 C18.7204162,12.4849977 19.0415721,12.7062148 19.4217215,12.8688768 C19.8018709,13.0315389 20.227894,13.1128687 20.6998036,13.1128687 C21.1717132,13.1128687 21.5977363,13.0315389 21.9778857,12.8688768 C22.3580351,12.7062148 22.679191,12.4849977 22.941363,12.205219 C23.203535,11.9254402 23.4067153,11.5871083 23.5509099,11.1902129 C23.6951045,10.7933174 23.7672007,10.3606429 23.7672007,9.89217618 C23.7672007,9.42370947 23.6951045,8.99103491 23.5509099,8.5941395 C23.4067153,8.1972441 23.203535,7.85891211 22.941363,7.57913338 C22.679191,7.29935465 22.3580351,7.07813758 21.9778857,6.91547553 C21.5977363,6.75281348 21.1717132,6.67148368 20.6998036,6.67148368 C20.227894,6.67148368 19.8018709,6.75281348 19.4217215,6.91547553 C19.0415721,7.07813758 18.7204162,7.29935465 18.4582442,7.57913338 C18.1960722,7.85891211 17.992892,8.1972441 17.8486974,8.5941395 C17.7045028,8.99103491 17.6324066,9.42370947 17.6324066,9.89217618 Z" id="Combined-Shape"></path>
                    <path d="M27.3822219,5.49481142 L29.1518741,5.49481142 L29.1518741,6.91972386 L29.1911997,6.91972386 C29.3091771,6.67247754 29.4664779,6.44800728 29.6631069,6.24630634 C29.8597359,6.04460539 30.0793017,5.87218621 30.3218108,5.7290436 C30.5643199,5.585901 30.8297651,5.47203927 31.1181543,5.387455 C31.4065435,5.30287074 31.6949283,5.26057924 31.9833175,5.26057924 C32.2717067,5.26057924 32.5338748,5.29961754 32.7698296,5.37769533 L32.6911784,7.27107213 C32.5469838,7.23203324 32.4027913,7.19950132 32.2585967,7.17347539 C32.1144021,7.14744946 31.9702097,7.13443669 31.8260151,7.13443669 C30.9608475,7.13443669 30.2988731,7.37517292 29.8400721,7.85665259 C29.3812711,8.33813226 29.1518741,9.08636647 29.1518741,10.1013777 L29.1518741,14.7469826 L27.3822219,14.7469826 L27.3822219,5.49481142 Z" id="Path"></path>
                    <polygon id="Path" points="33.9995922 0 35.7692444 0 35.7692444 9.52544206 39.7804559 5.52397562 42.2383061 5.52397562 37.892827 9.72063555 42.6118994 14.7566275 40.0950608 14.7566275 35.7692444 9.95486773 35.7692444 14.7566275 33.9995922 14.7566275"></polygon>
                    <path d="M42.6274025,5.0470146 L44.6723339,5.0470146 L47.4447889,12.2691735 L47.4841145,12.2691735 L50.1189299,5.0470146 L52.0262217,5.0470146 L47.6020913,16.2901593 C47.4447881,16.6935612 47.2809331,17.0611719 47.1105213,17.3930025 C46.9401095,17.7248331 46.7369292,18.0078608 46.5009744,18.2420942 C46.2650196,18.4763275 45.9799119,18.6585063 45.6456426,18.7886359 C45.3113733,18.9187656 44.9017357,18.9838294 44.4167175,18.9838294 C44.1545455,18.9838294 43.8891003,18.9675635 43.620374,18.9350311 C43.3516477,18.9024986 43.0927567,18.8341816 42.8436933,18.7300779 L43.0599841,17.1294913 C43.4139163,17.2726339 43.7678432,17.3442042 44.1217754,17.3442042 C44.397056,17.3442042 44.6297302,17.308419 44.8198049,17.2368477 C45.0098796,17.1652764 45.1737346,17.0611743 45.3113749,16.9245382 C45.4490152,16.787902 45.5637138,16.6284956 45.655474,16.4463141 C45.7472342,16.2641326 45.838993,16.0559283 45.9307532,15.821695 L46.5009744,14.3577438 L42.6274025,5.0470146 Z" id="Path"></path>
                </g>
            </g>
        </g>
    </g>
</svg>