<?xml version="1.0" encoding="UTF-8"?>
<svg width="538px" height="139px" viewBox="0 0 538 139" version="1.1" xmlns="http://www.w3.org/2000/svg" xmlns:xlink="http://www.w3.org/1999/xlink">
    <!-- Generator: Sketch 50.2 (55047) - http://www.bohemiancoding.com/sketch -->
    <title>GDG_2018_white</title>
    <desc>Created with Sketch.</desc>
    <defs>
        <radialGradient cx="99.0955882%" cy="97.7460317%" fx="99.0955882%" fy="97.7460317%" r="325.470588%" gradientTransform="translate(0.990956,0.977460),scale(1.000000,0.719577),translate(-0.990956,-0.977460)" id="radialGradient-1">
            <stop stop-color="#BF360C" stop-opacity="0.2" offset="0%"></stop>
            <stop stop-color="#BF360C" stop-opacity="0.02" offset="100%"></stop>
        </radialGradient>
        <radialGradient cx="162.652941%" cy="157.771429%" fx="162.652941%" fy="157.771429%" r="262.488235%" gradientTransform="translate(1.626529,1.577714),scale(1.000000,0.693878),translate(-1.626529,-1.577714)" id="radialGradient-2">
            <stop stop-color="#263238" stop-opacity="0.2" offset="0%"></stop>
            <stop stop-color="#263238" stop-opacity="0.02" offset="100%"></stop>
        </radialGradient>
        <radialGradient cx="-1.2505828%" cy="0.78125%" fx="-1.2505828%" fy="0.78125%" r="168.015799%" gradientTransform="translate(-0.012506,0.007812),scale(1.000000,0.624709),translate(0.012506,-0.007812)" id="radialGradient-3">
            <stop stop-color="#FFFFFF" stop-opacity="0.1" offset="0%"></stop>
            <stop stop-color="#FFFFFF" stop-opacity="0" offset="100%"></stop>
        </radialGradient>
    </defs>
    <g id="Page-1" stroke="none" stroke-width="1" fill="none" fill-rule="evenodd">
        <g id="GDG_2018_white">
            <g id="XMLID_61_">
                <g id="XMLID_62_">
                    <path d="M78.4,58 L44.8,0 L0,0 L37,64 L0,128 L44.8,128 L78.3,70 C80.5,66.3 80.5,61.7 78.4,58 Z" id="XMLID_106_"></path>
                    <polygon id="XMLID_105_" fill="#FFC107" fill-rule="nonzero" points="59.2 102.3 48.5 83.9 23 128 44.8 128 59.4 102.8"></polygon>
                    <path d="M78.4,58 L44.8,0 L0,0 L37,64 L0,128 L44.8,128 L78.3,70 C80.5,66.3 80.5,61.7 78.4,58 Z" id="XMLID_104_"></path>
                    <polygon id="XMLID_103_" fill="#0F9D58" fill-rule="nonzero" points="37 64 48.5 83.9 23 128 0 128"></polygon>
                    <path d="M78.4,58 L44.8,0 L0,0 L37,64 L0,128 L44.8,128 L78.3,70 C80.5,66.3 80.5,61.7 78.4,58 Z" id="XMLID_102_"></path>
                    <polygon id="XMLID_101_" fill="#BF360C" fill-rule="nonzero" opacity="0.2" points="44.8 127 23.6 127 23 128 44.8 128 59.4 102.8 59.2 102.3"></polygon>
                    <path d="M78.4,58 L44.8,0 L0,0 L37,64 L0,128 L44.8,128 L78.3,70 C80.5,66.3 80.5,61.7 78.4,58 Z" id="XMLID_100_"></path>
                    <polygon id="XMLID_99_" fill="#263238" fill-rule="nonzero" opacity="0.2" points="0.6 127 0 128 23 128 23.6 127"></polygon>
                    <path d="M78.4,58 L44.8,0 L0,0 L37,64 L0,128 L44.8,128 L78.3,70 C80.5,66.3 80.5,61.7 78.4,58 Z" id="XMLID_98_"></path>
                    <polygon id="XMLID_96_" fill="#FFFFFF" fill-rule="nonzero" opacity="0.2" points="0 128 0.6 128 37.3 64.5 37 64"></polygon>
                    <path d="M78.4,58 L44.8,0 L0,0 L37,64 L0,128 L44.8,128 L78.3,70 C80.5,66.3 80.5,61.7 78.4,58 Z" id="XMLID_94_"></path>
                    <polygon id="XMLID_92_" fill="url(#radialGradient-1)" fill-rule="nonzero" points="59.4 102.8 48.5 83.9 45.8 88.5"></polygon>
                    <path d="M78.4,58 L44.8,0 L0,0 L37,64 L0,128 L44.8,128 L78.3,70 C80.5,66.3 80.5,61.7 78.4,58 Z" id="XMLID_90_"></path>
                    <polygon id="XMLID_89_" fill="url(#radialGradient-2)" fill-rule="nonzero" points="45.8 88.5 48.5 83.9 37 64 31.5 73.5"></polygon>
                    <path d="M78.4,58 L44.8,0 L0,0 L37,64 L0,128 L44.8,128 L78.3,70 C80.5,66.3 80.5,61.7 78.4,58 Z" id="XMLID_88_"></path>
                    <g id="XMLID_85_" fill="#4285F4" fill-rule="nonzero">
                        <g id="XMLID_86_">
                            <polygon id="XMLID_87_" points="23 0 0 0 59.4 102.8 70.9 82.9"></polygon>
                        </g>
                    </g>
                    <path d="M78.4,58 L44.8,0 L0,0 L37,64 L0,128 L44.8,128 L78.3,70 C80.5,66.3 80.5,61.7 78.4,58 Z" id="XMLID_84_"></path>
                    <path d="M78.4,70 C80.5,66.3 80.5,61.7 78.4,58 L44.8,0 L23,0 L70.9,82.9 L78.4,70 Z" id="XMLID_83_" fill="#DB4437" fill-rule="nonzero"></path>
                    <path d="M78.4,58 L44.8,0 L0,0 L37,64 L0,128 L44.8,128 L78.3,70 C80.5,66.3 80.5,61.7 78.4,58 Z" id="XMLID_82_"></path>
                    <polygon id="XMLID_71_" fill="#1A237E" fill-rule="nonzero" opacity="0.2" points="70.9 82.9 70.7 82.4 59.4 101.8 0.6 0 0 0 59.4 102.8"></polygon>
                    <path d="M78.4,58 L44.8,0 L0,0 L37,64 L0,128 L44.8,128 L78.3,70 C80.5,66.3 80.5,61.7 78.4,58 Z" id="XMLID_69_"></path>
                    <path d="M44.8,1 L78.3,59 C79.3,60.7 79.8,62.6 79.9,64.5 C80,62.3 79.5,60 78.3,58 L44.8,0 L0,0 L0.6,1 L44.8,1 Z" id="XMLID_67_" fill="#FFFFFF" fill-rule="nonzero" opacity="0.2"></path>
                    <path d="M78.4,58 L44.8,0 L0,0 L37,64 L0,128 L44.8,128 L78.3,70 C80.5,66.3 80.5,61.7 78.4,58 Z" id="XMLID_66_"></path>
                    <path d="M70.9,82.9 L78.4,70 C79.6,68 80.1,65.7 80,63.5 C79.9,65.4 79.4,67.3 78.4,69 L70.7,82.4 L70.9,82.9 Z" id="XMLID_65_" fill="#3E2723" fill-rule="nonzero" opacity="0.2"></path>
                    <path d="M78.4,58 L44.8,0 L0,0 L37,64 L0,128 L44.8,128 L78.3,70 C80.5,66.3 80.5,61.7 78.4,58 Z" id="XMLID_64_"></path>
                    <path d="M78.4,58 L44.8,0 L0,0 L37,64 L0,128 L44.8,128 L78.3,70 C80.5,66.3 80.5,61.7 78.4,58 Z" id="XMLID_63_" fill="url(#radialGradient-3)" fill-rule="nonzero"></path>
                </g>
            </g>
            <g id="XMLID_7_" transform="translate(126.000000, 5.000000)" fill="#FFFFFF">
                <path d="M50.6,28.3 C50.6,35.3 48.5,40.9 44.4,45 C39.7,49.9 33.5,52.4 26,52.4 C18.8,52.4 12.6,49.9 7.6,44.9 C2.5,39.9 0,33.7 0,26.2 C0,18.7 2.5,12.6 7.6,7.5 C12.7,2.5 18.8,0 26,0 C29.6,0 33,0.7 36.3,2.1 C39.6,3.5 42.2,5.4 44.1,7.7 L39.7,12.1 C36.4,8.1 31.8,6.1 26,6.1 C20.7,6.1 16.2,8 12.3,11.7 C8.5,15.4 6.5,20.2 6.5,26.2 C6.5,32.1 8.4,36.9 12.3,40.7 C16.2,44.4 20.7,46.3 26,46.3 C31.6,46.3 36.3,44.4 40,40.7 C42.4,38.3 43.8,34.9 44.2,30.6 L26,30.6 L26,24.6 L50.3,24.6 C50.5,25.8 50.6,27.1 50.6,28.3 Z" id="Path"></path>
                <path d="M57,51.3 L57,1.2 L72.3,1.2 C80,1.2 86.2,3.5 90.8,8.2 C95.4,12.8 97.7,18.9 97.7,26.3 C97.7,33.7 95.4,39.8 90.8,44.4 C86.2,49 80,51.4 72.3,51.4 L57,51.4 L57,51.3 Z M63.4,45.1 L72.3,45.1 C78.1,45.1 82.7,43.4 86.1,40.1 C89.5,36.8 91.2,32.1 91.2,26.2 C91.2,20.3 89.5,15.6 86.1,12.3 C82.7,9 78.1,7.3 72.3,7.3 L63.4,7.3 L63.4,45.1 Z" id="Combined-Shape"></path>
                <path d="M152.4,28.3 C152.4,35.3 150.3,40.9 146.2,45 C141.5,49.9 135.3,52.4 127.8,52.4 C120.6,52.4 114.4,49.9 109.4,44.9 C104.3,39.9 101.8,33.7 101.8,26.2 C101.8,18.7 104.3,12.6 109.4,7.5 C114.5,2.5 120.6,0 127.8,0 C131.4,0 134.8,0.7 138.1,2.1 C141.4,3.5 144,5.4 145.9,7.7 L141.5,12.1 C138.2,8.1 133.6,6.1 127.8,6.1 C122.5,6.1 118,8 114.1,11.7 C110.3,15.4 108.3,20.2 108.3,26.2 C108.3,32.1 110.2,36.9 114.1,40.7 C118,44.4 122.5,46.3 127.8,46.3 C133.4,46.3 138.1,44.4 141.8,40.7 C144.2,38.3 145.6,34.9 146,30.6 L127.8,30.6 L127.8,24.6 L152.1,24.6 C152.3,25.8 152.4,27.1 152.4,28.3 Z" id="Path"></path>
                <path d="M175.6,51.3 L175.6,1.2 L190.9,1.2 C198.6,1.2 204.8,3.5 209.4,8.2 C214,12.8 216.3,18.9 216.3,26.3 C216.3,33.7 214,39.8 209.4,44.4 C204.8,49 198.6,51.4 190.9,51.4 L175.6,51.4 L175.6,51.3 Z M182.1,45.1 L191,45.1 C196.8,45.1 201.4,43.4 204.8,40.1 C208.2,36.8 209.9,32.1 209.9,26.2 C209.9,20.3 208.2,15.6 204.8,12.3 C201.4,9 196.8,7.3 191,7.3 L182.1,7.3 L182.1,45.1 Z" id="Combined-Shape"></path>
                <path d="M237.4,52.4 C232.2,52.4 228,50.7 224.8,47.2 C221.6,43.7 219.9,39.4 219.9,34.1 C219.9,29.1 221.5,24.8 224.6,21.2 C227.7,17.6 231.8,15.8 236.7,15.8 C241.8,15.8 245.9,17.5 248.9,20.8 C252,24.1 253.5,28.5 253.5,34.1 L253.4,35.3 L226.3,35.3 C226.5,38.8 227.6,41.5 229.8,43.5 C231.9,45.5 234.4,46.5 237.3,46.5 C241.9,46.5 245,44.5 246.7,40.6 L252.4,43 C251.3,45.7 249.4,47.9 246.9,49.7 C244.3,51.5 241.2,52.4 237.4,52.4 Z M246.7,30 C246.6,28 245.7,26.2 244,24.4 C242.3,22.6 239.9,21.7 236.6,21.7 C234.2,21.7 232.2,22.4 230.4,23.9 C228.6,25.4 227.4,27.4 226.8,29.9 L246.7,29.9 L246.7,30 Z" id="Combined-Shape"></path>
                <polygon id="Path" points="267.1 51.3 253.2 17 260.2 17 270.3 43.6 270.4 43.6 280.6 17 287.5 17 273.5 51.3 267.1 51.3"></polygon>
                <polygon id="Path" points="297.7 51.3 291.3 51.3 291.3 1.2 320.6 1.2 320.6 7.4 297.8 7.4 297.8 23.9 318.3 23.9 318.3 29.9 297.7 29.9"></polygon>
                <path d="M340,52.4 C334.8,52.4 330.6,50.7 327.4,47.2 C324.2,43.7 322.5,39.4 322.5,34.1 C322.5,29.1 324.1,24.8 327.2,21.2 C330.4,17.6 334.4,15.8 339.3,15.8 C344.4,15.8 348.5,17.5 351.5,20.8 C354.6,24.1 356.1,28.5 356.1,34.1 L356,35.3 L328.9,35.3 C329.1,38.8 330.2,41.5 332.4,43.5 C334.5,45.5 337,46.5 339.9,46.5 C344.5,46.5 347.6,44.5 349.3,40.6 L355,43 C353.9,45.7 352,47.9 349.5,49.7 C346.9,51.5 343.7,52.4 340,52.4 Z M349.2,30 C349.1,28 348.2,26.2 346.5,24.4 C344.8,22.6 342.4,21.7 339.1,21.7 C336.7,21.7 334.7,22.4 332.9,23.9 C331.1,25.4 329.9,27.4 329.3,29.9 L349.2,29.9 L349.2,30 Z" id="Combined-Shape"></path>
                <path d="M373.2,52.4 C369.4,52.4 366.2,51.5 363.7,49.6 C361.2,47.7 359.4,45.4 358.2,42.6 L363.9,40.2 C365.7,44.5 368.8,46.6 373.2,46.6 C375.2,46.6 376.9,46.2 378.1,45.3 C379.4,44.4 380,43.2 380,41.8 C380,39.6 378.4,38 375.3,37.3 L368.4,35.6 C366.2,35 364.1,34 362.2,32.4 C360.2,30.8 359.3,28.7 359.3,26.1 C359.3,23.1 360.6,20.6 363.3,18.7 C366,16.8 369.2,15.9 372.9,15.9 C375.9,15.9 378.6,16.6 381,18 C383.4,19.4 385.1,21.3 386.1,23.9 L380.5,26.2 C379.2,23.2 376.6,21.6 372.7,21.6 C370.8,21.6 369.2,22 367.9,22.8 C366.6,23.6 365.9,24.7 365.9,26 C365.9,28 367.4,29.3 370.4,30 L377.2,31.6 C380.4,32.3 382.8,33.6 384.3,35.5 C385.8,37.3 386.6,39.4 386.6,41.7 C386.6,44.8 385.3,47.3 382.8,49.4 C380.4,51.4 377.2,52.4 373.2,52.4 Z" id="Path"></path>
                <path d="M406.1,51.9 C402.5,51.9 399.8,50.9 397.9,49 C396,47.1 395.1,44.4 395.1,40.9 L395.1,22.9 L389.1,22.9 L389.1,17 L395.1,17 L395.1,6.5 L401.5,6.5 L401.5,17 L409.9,17 L409.9,22.9 L401.5,22.9 L401.5,40.4 C401.5,44.1 403,46 406.1,46 C407.3,46 408.2,45.8 409,45.4 L411.2,50.9 C409.8,51.6 408.1,51.9 406.1,51.9 Z" id="Path"></path>
            </g>
            <path d="M345.22,115.86 L365.1,96.12 C365.800004,95.4666634 366.476663,94.7550039 367.13,93.985 C367.783337,93.2149961 368.366664,92.4100042 368.88,91.57 C369.393336,90.7299958 369.801665,89.843338 370.105,88.91 C370.408335,87.976662 370.56,86.9966718 370.56,85.97 C370.56,84.7566606 370.338336,83.6600049 369.895,82.68 C369.451664,81.6999951 368.845004,80.87167 368.075,80.195 C367.304996,79.5183299 366.395005,78.9933352 365.345,78.62 C364.294995,78.2466648 363.186672,78.06 362.02,78.06 C359.593321,78.06 357.586675,78.7366599 356,80.09 C354.413325,81.4433401 353.410002,83.3099881 352.99,85.69 L345.71,85.06 C346.036668,82.8666557 346.678329,80.965008 347.635,79.355 C348.591671,77.7449919 349.78166,76.4033387 351.205,75.33 C352.62834,74.2566613 354.261657,73.4633359 356.105,72.95 C357.948343,72.4366641 359.943323,72.18 362.09,72.18 C364.236677,72.18 366.254991,72.4716637 368.145,73.055 C370.035009,73.6383362 371.69166,74.5016609 373.115,75.645 C374.53834,76.788339 375.658329,78.2116581 376.475,79.915 C377.291671,81.6183418 377.7,83.6133219 377.7,85.9 C377.7,87.5333415 377.455002,89.0616596 376.965,90.485 C376.474998,91.9083404 375.833337,93.2499937 375.04,94.51 C374.246663,95.7700063 373.336672,96.9599944 372.31,98.08 C371.283328,99.2000056 370.210006,100.296661 369.09,101.37 L352.78,117.12 L377.7,117.12 L377.7,123 L345.22,123 L345.22,115.86 Z M383.8,98.22 C383.8,96.3999909 383.893332,94.5100098 384.08,92.55 C384.266668,90.5899902 384.604998,88.6650094 385.095,86.775 C385.585002,84.8849905 386.238329,83.0766753 387.055,81.35 C387.871671,79.6233247 388.92166,78.1183397 390.205,76.835 C391.48834,75.5516602 393.004991,74.5250038 394.755,73.755 C396.505009,72.9849962 398.546655,72.6 400.88,72.6 C403.213345,72.6 405.254991,72.9849962 407.005,73.755 C408.755009,74.5250038 410.27166,75.5516602 411.555,76.835 C412.83834,78.1183397 413.888329,79.6233247 414.705,81.35 C415.521671,83.0766753 416.174998,84.8849905 416.665,86.775 C417.155002,88.6650094 417.493332,90.5899902 417.68,92.55 C417.866668,94.5100098 417.96,96.3999909 417.96,98.22 C417.96,100.833346 417.726669,103.633318 417.26,106.62 C416.793331,109.606682 415.930006,112.38332 414.67,114.95 C413.409994,117.51668 411.671678,119.639992 409.455,121.32 C407.238322,123.000008 404.380018,123.84 400.88,123.84 C397.379982,123.84 394.521678,123.000008 392.305,121.32 C390.088322,119.639992 388.350006,117.51668 387.09,114.95 C385.829994,112.38332 384.966669,109.606682 384.5,106.62 C384.033331,103.633318 383.8,100.833346 383.8,98.22 Z M390.52,98.22 C390.52,99.8533415 390.624999,101.789989 390.835,104.03 C391.045001,106.270011 391.499997,108.428323 392.2,110.505 C392.900004,112.581677 393.938326,114.343326 395.315,115.79 C396.691674,117.236674 398.546655,117.96 400.88,117.96 C403.213345,117.96 405.068326,117.236674 406.445,115.79 C407.821674,114.343326 408.859996,112.581677 409.56,110.505 C410.260003,108.428323 410.714999,106.270011 410.925,104.03 C411.135001,101.789989 411.24,99.8533415 411.24,98.22 C411.24,97.0999944 411.205,95.8283404 411.135,94.405 C411.065,92.9816596 410.901668,91.5350074 410.645,90.065 C410.388332,88.5949926 410.026669,87.1716735 409.56,85.795 C409.093331,84.4183264 408.475004,83.1816721 407.705,82.085 C406.934996,80.9883278 405.990006,80.1133366 404.87,79.46 C403.749994,78.8066634 402.420008,78.48 400.88,78.48 C399.339992,78.48 398.010006,78.8066634 396.89,79.46 C395.769994,80.1133366 394.825004,80.9883278 394.055,82.085 C393.284996,83.1816721 392.666669,84.4183264 392.2,85.795 C391.733331,87.1716735 391.371668,88.5949926 391.115,90.065 C390.858332,91.5350074 390.695,92.9816596 390.625,94.405 C390.555,95.8283404 390.52,97.0999944 390.52,98.22 Z M436.94,81.14 L427.84,89.54 L423.92,84.85 L437.71,73.44 L443.66,73.44 L443.66,123 L436.94,123 L436.94,81.14 Z M474.12,123.84 C471.879989,123.84 469.768343,123.50167 467.785,122.825 C465.801657,122.14833 464.086674,121.156673 462.64,119.85 C461.193326,118.543327 460.050004,116.956676 459.21,115.09 C458.369996,113.223324 457.95,111.123345 457.95,108.79 C457.95,107.249992 458.194998,105.826673 458.685,104.52 C459.175002,103.213327 459.839996,102.035005 460.68,100.985 C461.520004,99.9349948 462.511661,99.0483369 463.655,98.325 C464.798339,97.601663 466.04666,97.0533352 467.4,96.68 L467.4,96.47 C466.466662,96.2366655 465.533338,95.8166697 464.6,95.21 C463.666662,94.6033303 462.838337,93.833338 462.115,92.9 C461.391663,91.966662 460.796669,90.8350066 460.33,89.505 C459.863331,88.1749933 459.63,86.6466753 459.63,84.92 C459.63,83.053324 460.014996,81.3616742 460.785,79.845 C461.555004,78.3283258 462.604993,77.0333387 463.935,75.96 C465.265007,74.8866613 466.804991,74.0583362 468.555,73.475 C470.305009,72.8916637 472.15999,72.6 474.12,72.6 C476.08001,72.6 477.934991,72.8916637 479.685,73.475 C481.435009,74.0583362 482.974993,74.8866613 484.305,75.96 C485.635007,77.0333387 486.684996,78.3283258 487.455,79.845 C488.225004,81.3616742 488.61,83.053324 488.61,84.92 C488.61,86.6466753 488.376669,88.1749933 487.91,89.505 C487.443331,90.8350066 486.848337,91.966662 486.125,92.9 C485.401663,93.833338 484.573338,94.6033303 483.64,95.21 C482.706662,95.8166697 481.773338,96.2366655 480.84,96.47 L480.84,96.68 C482.19334,97.0533352 483.441661,97.601663 484.585,98.325 C485.728339,99.0483369 486.719996,99.9349948 487.56,100.985 C488.400004,102.035005 489.064998,103.213327 489.555,104.52 C490.045002,105.826673 490.29,107.249992 490.29,108.79 C490.29,111.123345 489.870004,113.223324 489.03,115.09 C488.189996,116.956676 487.046674,118.543327 485.6,119.85 C484.153326,121.156673 482.438343,122.14833 480.455,122.825 C478.471657,123.50167 476.360011,123.84 474.12,123.84 Z M466.35,85.9 C466.35,86.8800049 466.524998,87.836662 466.875,88.77 C467.225002,89.703338 467.726663,90.531663 468.38,91.255 C469.033337,91.9783369 469.838329,92.573331 470.795,93.04 C471.751671,93.506669 472.859994,93.74 474.12,93.74 C475.426673,93.74 476.558329,93.5183355 477.515,93.075 C478.471671,92.6316644 479.276663,92.0483369 479.93,91.325 C480.583337,90.601663 481.073332,89.773338 481.4,88.84 C481.726668,87.906662 481.89,86.9266718 481.89,85.9 C481.89,83.6133219 481.17834,81.7350073 479.755,80.265 C478.33166,78.7949926 476.453345,78.06 474.12,78.06 C471.973323,78.06 470.141674,78.7833261 468.625,80.23 C467.108326,81.6766739 466.35,83.566655 466.35,85.9 Z M474.12,117.96 C476.920014,117.96 479.194991,117.108342 480.945,115.405 C482.695009,113.701658 483.57,111.49668 483.57,108.79 C483.57,107.296659 483.325002,105.978339 482.835,104.835 C482.344998,103.691661 481.668338,102.735004 480.805,101.965 C479.941662,101.194996 478.938339,100.611669 477.795,100.215 C476.651661,99.8183313 475.426673,99.62 474.12,99.62 C471.366653,99.6666669 469.103342,100.541658 467.33,102.245 C465.556658,103.948342 464.67,106.129987 464.67,108.79 C464.67,110.236674 464.926664,111.531661 465.44,112.675 C465.953336,113.818339 466.641662,114.774996 467.505,115.545 C468.368338,116.315004 469.371661,116.909998 470.515,117.33 C471.658339,117.750002 472.859994,117.96 474.12,117.96 Z" id="2018" fill="#FFFFFF"></path>
            <g id="Gorky-Copy" transform="translate(125.000000, 69.000000)" fill="#FFFFFF">
                <path d="M50.9862595,29.373227 C50.9862595,36.427305 48.9262087,42.1223404 44.7417303,46.2641844 C39.9778626,51.2473404 33.7977099,53.7712766 26.2012723,53.7712766 C18.9267176,53.7712766 12.7465649,51.2473404 7.66081425,46.1347518 C2.57506361,41.0868794 0,34.7446809 0,27.302305 C0,19.8599291 2.57506361,13.5177305 7.66081425,8.46985816 C12.7465649,3.42198582 18.9267176,0.833333333 26.2012723,0.833333333 C29.8063613,0.833333333 33.2826972,1.54521277 36.5659033,2.96897163 C39.8491094,4.3927305 42.4885496,6.26950355 44.4198473,8.66400709 L39.9778626,13.1294326 C36.6302799,9.11702128 32.059542,7.1108156 26.2012723,7.1108156 C20.9223919,7.1108156 16.2872774,8.98758865 12.4246819,12.7411348 C8.56208651,16.4946809 6.6307888,21.3484043 6.6307888,27.3670213 C6.6307888,33.3856383 8.56208651,38.2393617 12.4246819,41.9929078 C16.2872774,45.7464539 20.8580153,47.623227 26.2012723,47.623227 C31.8664122,47.623227 36.5015267,45.7464539 40.2997455,41.9281915 C42.746056,39.4689716 44.162341,36.0390071 44.5486005,31.6382979 L26.2012723,31.6382979 L26.2012723,25.5549645 L50.6643766,25.5549645 C50.8575064,26.9140071 50.9862595,28.143617 50.9862595,29.373227 Z" id="XMLID_2_" fill-rule="nonzero"></path>
                <path d="M57.5,36.0416667 C57.5,33.5762371 57.9667515,31.2767844 58.9002685,29.1432396 C59.8337855,27.0096948 61.1143602,25.1369447 62.7420308,23.5249331 C64.3697015,21.9129214 66.2845795,20.6446666 68.4867222,19.7201305 C70.6888649,18.7955944 73.0585263,18.3333333 75.5957777,18.3333333 C78.1330291,18.3333333 80.5026905,18.7955944 82.7048332,19.7201305 C84.9069759,20.6446666 86.8218539,21.9129214 88.4495245,23.5249331 C90.0771952,25.1369447 91.3577699,27.0096948 92.2912869,29.1432396 C93.2248039,31.2767844 93.6915554,33.5762371 93.6915554,36.0416667 C93.6915554,38.5070962 93.2248039,40.8184018 92.2912869,42.9756526 C91.3577699,45.1329035 90.0771952,47.0056536 88.4495245,48.5939592 C86.8218539,50.1822647 84.9069759,51.4386667 82.7048332,52.3632028 C80.5026905,53.2877389 78.1330291,53.75 75.5957777,53.75 C73.0585263,53.75 70.6888649,53.2877389 68.4867222,52.3632028 C66.2845795,51.4386667 64.3697015,50.1822647 62.7420308,48.5939592 C61.1143602,47.0056536 59.8337855,45.1329035 58.9002685,42.9756526 C57.9667515,40.8184018 57.5,38.5070962 57.5,36.0416667 Z M64.3936296,36.0416667 C64.3936296,37.7485025 64.6569253,39.3249314 65.1835247,40.7710007 C65.710124,42.2170699 66.4521392,43.4497662 67.4095925,44.4691265 C68.3670459,45.4884868 69.5399086,46.2944805 70.928216,46.8871319 C72.3165233,47.4797832 73.8723617,47.7761044 75.5957777,47.7761044 C77.3191937,47.7761044 78.8750321,47.4797832 80.2633394,46.8871319 C81.6516467,46.2944805 82.8245095,45.4884868 83.7819628,44.4691265 C84.7394162,43.4497662 85.4814314,42.2170699 86.0080307,40.7710007 C86.5346301,39.3249314 86.7979258,37.7485025 86.7979258,36.0416667 C86.7979258,34.3348308 86.5346301,32.7584019 86.0080307,31.3123327 C85.4814314,29.8662634 84.7394162,28.6335671 83.7819628,27.6142068 C82.8245095,26.5948465 81.6516467,25.7888528 80.2633394,25.1962015 C78.8750321,24.6035501 77.3191937,24.3072289 75.5957777,24.3072289 C73.8723617,24.3072289 72.3165233,24.6035501 70.928216,25.1962015 C69.5399086,25.7888528 68.3670459,26.5948465 67.4095925,27.6142068 C66.4521392,28.6335671 65.710124,29.8662634 65.1835247,31.3123327 C64.6569253,32.7584019 64.3936296,34.3348308 64.3936296,36.0416667 Z" id="Combined-Shape"></path>
                <path d="M100,20.0200803 L106.462778,20.0200803 L106.462778,25.2116801 L106.606395,25.2116801 C107.037249,24.31085 107.611712,23.4930035 108.329802,22.7581158 C109.047892,22.0232281 109.849748,21.3950272 110.735392,20.873494 C111.621036,20.3519608 112.590443,19.9371111 113.643642,19.6289324 C114.696841,19.3207537 115.750023,19.1666667 116.803222,19.1666667 C117.856421,19.1666667 118.81386,19.3089009 119.675568,19.5933735 L119.388333,26.4918005 C118.861734,26.3495642 118.335142,26.2310357 117.808543,26.1362115 C117.281944,26.0413873 116.755352,25.9939759 116.228753,25.9939759 C113.069157,25.9939759 110.651624,26.8710867 108.97608,28.6253347 C107.300537,30.3795826 106.462778,33.1057379 106.462778,36.8038822 L106.462778,53.7299197 L100,53.7299197 L100,20.0200803 Z" id="Path"></path>
                <polygon id="Path" points="124.166667 0 130.629444 0 130.629444 34.7054886 145.278407 20.1263387 154.254488 20.1263387 138.384778 35.4166667 155.618852 53.7650602 146.427346 53.7650602 130.629444 36.2700803 130.629444 53.7650602 124.166667 53.7650602"></polygon>
                <path d="M155.675469,18.3885542 L163.143568,18.3885542 L173.268586,44.7021419 L173.412204,44.7021419 L183.034562,18.3885542 L190,18.3885542 L173.843056,59.3524096 C173.268584,60.8221849 172.670184,62.1615569 172.04784,63.3705656 C171.425495,64.5795743 170.68348,65.6107722 169.821772,66.4641901 C168.960064,67.317608 167.918849,67.9813676 166.698096,68.4554886 C165.477343,68.9296097 163.981344,69.1666667 162.210056,69.1666667 C161.252602,69.1666667 160.283195,69.1074024 159.301806,68.9888722 C158.320416,68.8703419 157.374945,68.6214321 156.465364,68.2421352 L157.255259,62.4104752 C158.547821,62.9320084 159.840364,63.1927711 161.132926,63.1927711 C162.138252,63.1927711 162.987979,63.0623897 163.682133,62.8016232 C164.376287,62.5408566 164.974686,62.1615654 165.477349,61.6637383 C165.980012,61.1659112 166.398891,60.5851216 166.734,59.9213521 C167.069109,59.2575826 167.404212,58.4990003 167.739321,57.6455823 L169.821772,52.311747 L155.675469,18.3885542 Z" id="Path"></path>
            </g>
        </g>
    </g>
</svg>