<?xml version="1.0" encoding="UTF-8" standalone="no"?>
<svg width="335px" height="140px" viewBox="0 0 335 140" version="1.1" xmlns="http://www.w3.org/2000/svg" xmlns:xlink="http://www.w3.org/1999/xlink">
    <!-- Generator: Sketch 43.2 (39069) - http://www.bohemiancoding.com/sketch -->
    <title>Logo</title>
    <desc>Created with Sketch.</desc>
    <defs>
        <radialGradient cx="98.8877698%" cy="97.6216495%" fx="98.8877698%" fy="97.6216495%" r="325.967626%" gradientTransform="translate(0.988878,0.976216),scale(1.000000,0.718229),translate(-0.988878,-0.976216)" id="radialGradient-1">
            <stop stop-color="#BF360C" stop-opacity="0.2" offset="0%"></stop>
            <stop stop-color="#BF360C" stop-opacity="0.02" offset="100%"></stop>
        </radialGradient>
        <radialGradient cx="162.739655%" cy="157.470518%" fx="162.739655%" fy="157.470518%" r="262.513218%" gradientTransform="translate(1.627397,1.574705),scale(1.000000,0.694905),translate(-1.627397,-1.574705)" id="radialGradient-2">
            <stop stop-color="#263238" stop-opacity="0.2" offset="0%"></stop>
            <stop stop-color="#263238" stop-opacity="0.02" offset="100%"></stop>
        </radialGradient>
    </defs>
    <g id="Page-1" stroke="none" stroke-width="1" fill="none" fill-rule="evenodd">
        <g id="Logo">
            <g id="GDG_logo_black-Copy" transform="translate(3.000000, 4.000000)">
                <g id="Group-7" transform="translate(0.000000, 0.000000)">
                    <polygon id="XMLID_26_" fill="#FFC107" points="59.29212 112.016283 50.9032782 97.5823826 30.8162348 132.285165 48.0556896 132.285165 59.5230056 112.47694"></polygon>
                    <polygon id="Shape" fill="#0F9D58" points="41.8217796 81.9968408 50.9032782 97.5823826 30.8162348 132.285165 12.7301996 132.285165"></polygon>
                    <polygon id="XMLID_25_" fill="url(#radialGradient-1)" points="59.5230056 112.47694 50.9032782 97.5823826 48.8253082 101.267634"></polygon>
                    <polygon id="XMLID_24_" fill="url(#radialGradient-2)" points="48.8253082 101.267634 50.9032782 97.5823826 41.8217796 81.9968408 37.5119159 89.4441194"></polygon>
                    <path d="M81.0723242,74.1656818 C80.2257438,74.9334425 79.5330871,75.8547553 79.2252397,76.9296203 C79.610049,77.3135006 79.9178964,77.5438288 80.1487819,77.8509331 C80.7644767,78.5419177 81.2262479,79.3096784 82.0728282,79.7703348 C82.8424468,80.2309912 83.1502942,81.152304 83.9968745,81.7665126 C85.3821879,82.7646014 86.6905394,84.0697946 87.7680053,85.4517638 C89.999899,88.4460305 90.6925557,91.9777296 91.3852123,95.5094287 C91.6930597,97.0449501 92.0009071,98.5036954 92.6935638,100.039217 C93.6940679,102.188947 94.5406483,104.415453 94.4636864,106.872287 C94.4636864,108.407808 94.2328009,108.868465 94.3097627,110.32721 C94.3867246,111.862731 94.7715338,113.475029 94.8484957,115.01055 C94.8484957,115.931863 93.4631823,117.390608 93.0014112,118.081593 C91.3852123,117.467384 91.1543268,115.855087 90.2307845,114.473118 L90.2307845,110.020106 C89.9229371,109.94333 89.6920516,109.866553 89.3072423,109.789777 L89.3072423,105.567094 C89.3072423,104.876109 89.0763568,104.185124 88.8454712,103.49414 C88.0758527,100.346321 86.5366157,97.5823826 85.305226,94.5881159 C83.6890271,90.6725365 80.6875149,88.1389262 76.993346,86.2963006 C74.9923378,85.2982117 74.1457575,85.5285399 72.4525967,86.9872852" id="Shape" fill="#000000"></path>
                    <path d="M65.8338775,96.8146219 C64.3716023,98.1198151 63.986793,99.9624407 63.44806,101.651514 C62.2936323,105.336765 60.8313571,108.791689 59.0612345,112.169836 C58.291616,113.628581 57.6759211,115.164102 57.8298448,116.929952 C57.9068067,118.388697 57.8298448,119.770666 57.8298448,121.229412 C57.8298448,121.766844 57.9837686,122.304277 58.1376923,122.841709 C58.9073108,125.298543 59.7538911,127.678601 61.0622426,130.212212 C59.5999674,130.135435 58.4455397,130.519316 57.2911119,129.751555 C56.2906078,129.137347 55.5209893,128.369586 55.0592182,127.294721 C54.6744089,126.296632 54.3665615,125.221767 53.9817522,124.223678 L52.2885915,124.223678 C51.9807441,122.534605 52.2116297,121.152635 52.6734008,119.770666 C53.2890956,118.004817 53.596943,116.162191 54.135676,114.319565 C54.9052945,112.016283 55.4440274,109.559449 55.674913,107.179391 C55.9827604,104.415453 56.9832645,101.805066 57.5219974,99.1179039 C57.9068067,97.1217262 58.4455397,95.1255484 58.7533871,93.0525946 C59.0612345,91.5170732 58.3685778,90.21188 57.21415,89.1370151 C56.7523789,88.7531347 56.4445315,88.2924783 56.0597223,87.8318219 C54.9822563,87.7550459 54.2126378,87.1408373 53.2890956,86.9872852 C50.2875834,86.3730766 47.2860711,85.9124202 44.2845589,85.4517638 C42.9762074,85.2982117 41.7448178,85.2982117 40.4364663,84.9911074 C37.7428015,84.4536749 34.8952129,84.530451 32.0476244,84.3001228 C31.6628152,85.5285399 30.4314255,85.4517638 29.8157307,86.4498527 C28.12257,89.4441194 26.4294092,92.438386 24.8132103,95.5094287 C22.8122022,99.2714561 21.7347363,103.340588 21.8116981,107.640048 L21.8116981,111.939507 C21.8116981,112.400164 21.7347363,112.937596 21.88866,113.398253 C22.1195455,114.319565 22.5813166,115.164102 22.8122022,116.008639 C23.0430877,117.006728 23.1200496,118.081593 23.3509351,119.079682 C23.5048588,120.000994 24.1205537,120.768755 24.4284011,121.690068 C25.0440959,123.60947 25.8906763,125.452095 26.9681422,127.217945 C28.0456081,128.907018 29.2769978,130.44254 30.3544637,132.285165 C28.8152266,132.285165 27.5068752,132.208389 26.1215618,132.285165 C24.6592866,132.361941 23.6587826,131.517405 22.8122022,130.519316 C22.5813166,130.288988 22.7352403,129.751555 22.6582785,129.367675 C22.1965074,129.290899 21.8116981,129.290899 21.349927,129.214123 C21.1190414,128.907018 20.8881559,128.599914 20.7342322,128.216034 C20.1954992,127.141169 19.5798044,126.14308 19.271957,125.068215 C18.8871477,123.455918 18.5023385,121.84362 18.2714529,120.231323 C17.8866437,117.54416 16.7322159,115.164102 15.8856355,112.630492 C15.2699407,110.787866 14.0385511,109.098793 14.1155129,107.025839 C13.038047,106.41163 14.3463985,104.645781 12.9610851,104.185124 C9.80564919,106.334854 8.65122141,109.713001 7.11198437,112.86082 C7.03502252,115.317654 5.49578548,117.54416 5.57274733,120.000994 C4.26439585,123.072037 5.49578548,125.452095 7.65071733,127.601825 C8.1894503,128.139258 8.343374,128.907018 8.80514511,129.751555 L3.26389177,129.751555 C2.26338769,128.907018 2.26338769,127.678601 1.95554029,126.52696 C1.64769288,125.452095 0.724150653,124.530782 0.108455837,123.686246 C-0.122429719,121.997172 0.647188801,120.615203 0.878074357,119.156458 C1.18592177,117.620936 2.18642584,116.469295 2.5712351,115.087326 C3.26389177,112.400164 4.11047214,109.866553 4.72616696,107.102615 C5.18793807,104.799333 5.64970918,102.496051 6.34236585,100.115993 C8.03552659,98.5804715 9.88261104,97.0449501 11.6527336,95.4326527 C13.7307036,93.513251 14.3463985,90.9796407 14.7312077,88.3692544 C14.9620933,86.6034048 14.7312077,84.8375553 14.8081696,83.0717057 C14.8081696,82.3807211 14.6542459,81.8432886 13.9615892,81.5361843 C12.5762759,83.0717057 11.1140007,84.3001228 8.72818326,84.530451 L8.72818326,83.2252578 C8.65122141,80.6916476 9.57476363,78.1580373 9.26691623,75.6244271 C9.11299252,74.4727861 9.18995437,73.244369 9.26691623,72.092728 C9.34387808,70.5572066 9.80564919,69.1752374 10.1134966,67.7164921 C10.5752677,65.6435382 11.7296955,63.9544647 12.8071614,62.2653912 C14.6542459,59.3479007 17.1170251,56.8142904 20.0415755,54.9716648 C22.889164,53.1290391 26.2754855,52.5916067 29.5078833,52.3612785 C32.1245863,52.1309503 34.7412892,51.9773981 37.4349541,52.6683827 C38.4354581,52.975487 39.6668478,52.975487 40.7443137,53.2825913 C41.8217796,53.5896955 42.8992456,53.8967998 43.8997496,54.127128 C45.9007578,54.6645605 47.9017659,55.3555451 49.9797359,55.201993 C54.4435234,54.9716648 58.9842726,55.6626494 63.44806,54.7413366 C65.0642589,54.4342323 66.8343815,54.6645605 68.2196949,53.9735759 C68.4505804,53.2825913 68.6045041,52.6683827 68.7584278,52.0541742 C68.9893134,51.1328614 69.1432371,50.2115486 69.3741227,49.2902357 C69.7589319,47.7547144 69.9898175,46.219193 70.5285504,44.7604477 C71.3751308,42.3036135 71.9908256,39.8467794 71.8369019,37.3131691 C70.6055123,36.3918563 69.1432371,36.6221845 67.8348856,36.5454084 C66.064763,36.4686324 64.3716023,35.9311999 63.0632508,34.6260067 C62.2936323,33.858246 61.37009,33.1672614 60.7543952,32.3227247 C59.830853,31.0943076 58.7533871,29.7891144 59.3690819,28.0232649 L64.525526,28.0232649 C64.6024878,28.0232649 64.6794497,27.9464888 64.8333734,27.7161606 C61.1392045,26.1806392 58.5225015,23.2631486 56.5984552,20.0385538 C54.5974471,16.6604068 53.2121337,13.0519316 54.135676,9.21312817 C54.2126378,8.9060239 54.2895997,8.59891963 54.4435234,8.21503929 C54.8283326,8.9060239 55.0592182,9.28990424 55.2131419,9.75056065 C55.3670656,10.0576649 55.3670656,10.4415453 55.4440274,10.8254256 C55.8288367,9.44345638 55.5979511,8.06148715 56.213646,6.67951793 C56.8293408,5.37432477 57.2911119,4.29945981 58.4455397,3.30137093 C57.9068067,5.98853331 57.5219974,8.44536749 57.9837686,10.9789777 C58.6764252,10.7486495 59.2151582,10.5950974 59.9847767,10.3647692 C59.3690819,11.9770666 58.8303489,13.2822598 58.3685778,14.4339008 C58.9842726,16.0461982 59.5230056,17.5817196 60.1387004,19.117241 C63.2171745,17.5817196 65.7569156,15.6623179 67.9118475,13.2822598 C68.2196949,13.512588 68.3736186,13.5893641 68.5275423,13.7429162 C68.4505804,13.9732444 68.3736186,14.2035726 68.2966567,14.3571247 C66.9883052,16.3533025 65.1412208,17.9655999 63.44806,19.6546734 C62.6784415,20.4224341 61.9857849,21.1901948 61.8318612,22.1882837 C62.8323652,24.4915657 63.1402126,24.4915657 65.5260301,25.4896546 C67.0652671,26.1038632 68.6045041,26.5645196 70.1437412,27.2555042 C71.0672834,27.7161606 72.298673,28.4839213 73.376139,27.8697127 C73.6070245,26.0270871 73.8379101,24.3380136 74.0687956,22.7257162 C74.5305667,22.2650598 74.915376,21.8044033 75.3001853,21.420523 C76.0698038,22.9560444 76.1467656,24.5683418 76.0698038,26.1806392 C76.0698038,26.7948478 75.9928419,27.3322803 76.0698038,27.9464888 C76.2237275,29.328458 78.1477738,30.8639794 79.3022016,30.480099 C80.4566293,30.0962187 81.5340953,29.4052341 82.6115612,28.9445777 L82.6115612,22.3418358 C82.3806756,21.8811794 82.2267519,21.4972991 81.9189045,21.0366427 L83.3811797,21.0366427 C84.6125693,23.0328204 85.2282642,25.1825503 85.2282642,27.5626085 C88.3837001,26.0270871 89.7690134,21.4972991 89.0763568,19.117241 C88.5376238,17.2746153 87.5371197,15.5087658 86.8444631,13.7429162 C86.7675012,13.512588 86.6905394,13.2054837 86.6135775,12.7448273 C88.6145857,13.0519316 88.6145857,15.2016615 90.0768608,15.81587 C90.538632,12.9751555 90.3077464,10.2112171 89.5381279,7.52405468 C88.8454712,5.14399656 87.8449671,2.76393845 87.2292723,0.0767760681 C88.8454712,0.614208545 89.6150897,1.84262563 90.1538227,3.14781879 C90.4616701,3.99235554 90.4616701,4.99044443 90.6925557,5.91175725 C90.8464794,6.37241365 91.1543268,6.75629399 91.3852123,7.14017434 C91.539136,7.06339827 91.6160979,7.06339827 91.7700216,6.9866222 L91.7700216,3.76202734 C93.5401442,5.98853331 93.2322968,8.21503929 93.2322968,10.4415453 C92.2317927,11.5164102 92.9244494,12.8216034 92.7705257,14.0500205 C92.5396401,15.2016615 92.3857164,16.4300786 92.3087546,17.6584957 C92.2317927,18.8869128 92.4626783,20.0385538 91.539136,21.2669709 L93.0014112,21.2669709 C93.7710297,20.5759863 94.5406483,19.8082256 95.3102668,19.117241 C95.3872286,16.1997504 95.3872286,13.3590359 93.8479916,10.8254256 C93.6940679,10.5950974 93.9249534,10.134441 94.0019153,9.59700852 C95.3102668,10.134441 95.5411523,11.1325299 95.8489997,12.1306188 C96.0798853,12.8216034 96.0798853,13.6661401 97.0803894,13.8964683 C98.311779,10.9022017 97.6191223,7.75438288 98.0039316,4.60656409 C98.4657027,4.83689229 98.7735501,4.91366836 98.850512,4.99044443 C99.2353212,6.37241365 99.6970923,7.67760681 99.851016,9.13635211 C100.00494,10.9022017 99.6970923,12.6680512 99.4662068,14.5106769 C99.0044357,17.6584957 97.9269697,20.4224341 95.5411523,22.4186119 C94.694572,23.1863726 93.5401442,23.8005811 92.6935638,24.4915657 C90.3077464,26.4877435 87.5371197,28.0232649 85.843959,30.7872033 C86.0748445,31.0175315 86.3057301,31.2478597 86.5366157,31.4781879 C87.5371197,30.9407555 88.6915475,30.6336512 89.461166,29.9426666 C90.6155938,28.8678016 91.9239453,28.2535931 93.2322968,27.4858324 L99.0044357,27.4858324 C99.0813975,27.4858324 99.1583594,27.5626085 99.3122831,27.6393845 C99.4662068,28.4071452 99.2353212,29.0981298 99.0044357,29.8658905 C98.3887409,31.4014119 97.3882368,32.5530529 96.1568472,33.4743657 C95.3102668,34.0885742 94.155839,34.3189025 93.0783731,34.5492307 C91.539136,34.8563349 89.9229371,35.0098871 88.3067382,35.2402153 C88.460662,35.3937674 88.6145857,35.5473195 88.6145857,35.6240956 C88.6915475,37.6970494 88.7685094,39.7700033 88.9224331,41.7661811 C89.9229371,42.9945981 90.9234412,44.1462392 91.8469834,45.3746563 L91.8469834,48.2921468 C91.2312886,48.9063554 90.6155938,49.5205639 90.1538227,50.0579964 C89.2302805,50.2883246 88.460662,50.5186528 87.6910434,50.672205 C86.9214249,50.748981 86.0748445,50.672205 85.0743405,50.672205 C85.305226,51.5167417 85.4591497,52.1309503 85.6130734,52.7451588 C85.9978827,54.3574562 86.5366157,55.8929776 86.7675012,57.5820511 C87.1523105,60.0388853 86.5366157,62.4957195 86.3057301,64.9525536 C85.2282642,65.7203143 85.9209208,66.9487314 85.5361116,67.9468203 C84.9204168,69.6358938 84.3816838,71.3249673 83.765989,73.0140408 C82.9963705,75.0102186 82.0728282,76.7760681 80.610553,78.2348134 C79.610049,79.2329023 78.4556212,80.000663 77.4551171,80.9219758 C76.3776512,81.9200647 75.454109,82.9181536 74.376643,83.9162425 C73.5300627,84.6840031 72.837406,85.605316 72.5295586,86.6801809 C72.9143678,87.0640613 73.2222153,87.2943895 73.4531008,87.6014937 L65.8338775,96.8146219 Z M74.2996812,32.9369332 C74.5305667,32.706605 74.7614523,32.4762768 75.0692997,32.1691725 C74.376643,31.4781879 73.6070245,30.7872033 72.9143678,30.0962187 C71.6829782,29.7891144 70.3746267,29.4052341 69.0662752,29.0213538 C69.7589319,30.7104272 69.7589319,30.7104272 74.2996812,32.9369332 Z" id="Shape" fill="#000000"></path>
                    <polygon id="XMLID_23_" fill="#4285F4" points="30.8162348 31.7085161 12.7301996 31.7085161 59.5230056 112.47694 68.6045041 96.8146219"></polygon>
                    <path d="M74.4536049,86.6801809 C76.1467656,83.7626903 76.1467656,80.1542151 74.4536049,77.2367245 L48.0556896,31.7085161 L30.8162348,31.7085161 L68.6045041,96.8146219 L74.4536049,86.6801809 Z" id="Shape" fill="#DB4437"></path>
                </g>
                <g id="Layer_4_2_" transform="translate(110.910220, 31.478188)" fill="#000000">
                    <g id="XMLID_12_">
                        <path d="M81.2950183,1.99617777 L102.921299,1.99617777 C124.932388,1.99617777 138.785522,16.5836307 138.785522,37.0060648 C138.785522,57.5820511 124.932388,72.0159519 102.921299,72.0159519 L81.2950183,72.0159519 L81.2950183,1.99617777 L81.2950183,1.99617777 Z M103.306108,61.4208545 C118.621517,61.4208545 128.164786,52.8987109 128.164786,37.0060648 C128.164786,21.1901948 118.698478,12.5912752 103.306108,12.5912752 L91.9157539,12.5912752 L91.9157539,61.4208545 L103.306108,61.4208545 L103.306108,61.4208545 Z" id="XMLID_16_"></path>
                        <path d="M72.4444054,33.858246 L38.7351142,33.858246 L38.7351142,44.2997913 L62.5163265,44.2997913 C61.7467079,49.59734 59.8996235,53.7432477 57.1289968,56.5071861 C53.5887516,60.0388853 48.1244601,63.8776887 38.4272668,63.8776887 C23.5736293,63.8776887 11.9523897,51.9006221 11.9523897,37.0828409 C11.9523897,22.2650598 23.5736293,10.2879931 38.4272668,10.2879931 C46.4312994,10.2879931 52.2804001,13.4358119 56.6672257,17.5049435 L63.8246779,10.3647692 C57.7446916,4.60656409 49.740659,0.230328204 38.5042286,0.230328204 C18.1093378,0.230328204 1.0238067,16.8139589 1.0238067,37.0828409 C1.0238067,57.428499 18.1862997,73.9353536 38.5042286,73.9353536 C49.5097735,73.9353536 57.8216535,70.3268784 64.2864491,63.5705844 C70.9821302,56.8910665 73.0601002,47.5243862 73.0601002,40.0003315 C72.9831383,37.6202734 72.8292146,35.6240956 72.4444054,33.858246 Z" id="XMLID_14_"></path>
                        <path d="M217.209649,33.858246 L183.500358,33.858246 L183.500358,44.2997913 L207.28157,44.2997913 C206.511952,49.59734 204.664867,53.7432477 201.89424,56.5071861 C198.353995,60.0388853 192.889704,63.8776887 183.19251,63.8776887 C168.338873,63.8776887 156.717633,51.9006221 156.717633,37.0828409 C156.717633,22.2650598 168.338873,10.2879931 183.19251,10.2879931 C191.196543,10.2879931 197.045644,13.4358119 201.432469,17.5049435 L208.589922,10.3647692 C202.509935,4.60656409 194.505903,0.230328204 183.269472,0.230328204 C162.874581,0.230328204 145.78905,16.8139589 145.78905,37.0828409 C145.78905,57.428499 162.951543,73.9353536 183.269472,73.9353536 C194.275017,73.9353536 202.586897,70.3268784 209.051693,63.5705844 C215.747374,56.8910665 217.825344,47.5243862 217.825344,40.0003315 C217.748382,37.6202734 217.594458,35.6240956 217.209649,33.858246 Z" id="XMLID_13_"></path>
                    </g>
                </g>
                <g id="Group" transform="translate(113.133922, 115.931863)" fill="#000000">
                    <path d="M10.6522296,16.0461982 L2.10946399,3.68525127 C2.03250214,3.53169913 1.87857843,3.378147 1.80161658,3.22459486 C1.72465473,3.07104272 1.64769288,2.91749059 1.57073103,2.76393845 L1.49376917,2.76393845 L1.49376917,3.30137093 L1.49376917,4.14590768 L1.49376917,16.1229743 L0.0314939851,16.1229743 L0.0314939851,0.614208545 L1.64769288,0.614208545 L10.1134966,12.8216034 C10.2674203,13.0519316 10.3443822,13.2054837 10.4983059,13.3590359 C10.5752677,13.512588 10.7291914,13.6661401 10.8061533,13.8196923 L10.8831151,13.8196923 C10.8831151,13.5893641 10.8061533,13.2822598 10.8061533,13.0519316 L10.8061533,12.0538427 L10.8061533,0.614208545 L12.2684285,0.614208545 L12.2684285,16.0461982 L10.6522296,16.0461982 L10.6522296,16.0461982 Z" id="Shape"></path>
                    <polygon id="Shape" points="18.3484148 16.0461982 16.8861396 16.0461982 16.8861396 0.614208545 18.3484148 0.614208545"></polygon>
                    <polygon id="Shape" points="23.7357444 14.7410051 32.8172429 14.7410051 32.8172429 16.0461982 21.5808125 16.0461982 21.5808125 15.6623179 30.7392729 1.99617777 22.2734692 1.99617777 22.2734692 0.614208545 32.8942048 0.614208545 32.8942048 0.998088886"></polygon>
                    <polygon id="Shape" points="46.2086052 16.0461982 46.2086052 8.82924783 37.7428015 8.82924783 37.7428015 16.0461982 36.2805263 16.0461982 36.2805263 0.614208545 37.7428015 0.614208545 37.7428015 7.52405468 46.2086052 7.52405468 46.2086052 0.614208545 47.6708804 0.614208545 47.6708804 16.0461982"></polygon>
                    <path d="M62.9862889,16.0461982 L54.4435234,3.68525127 C54.3665615,3.53169913 54.2126378,3.378147 54.135676,3.22459486 C54.0587141,3.07104272 53.9817522,2.91749059 53.9047904,2.76393845 L53.8278285,2.76393845 L53.8278285,3.30137093 L53.8278285,4.14590768 L53.8278285,16.1229743 L52.3655534,16.1229743 L52.3655534,0.614208545 L53.9817522,0.614208545 L62.447556,12.8216034 C62.6014797,13.0519316 62.6784415,13.2054837 62.8323652,13.3590359 C62.9093271,13.512588 63.0632508,13.6661401 63.1402126,13.8196923 L63.2171745,13.8196923 C63.2171745,13.5893641 63.1402126,13.2822598 63.1402126,13.0519316 L63.1402126,12.0538427 L63.1402126,0.614208545 L64.6024878,0.614208545 L64.6024878,16.0461982 L62.9862889,16.0461982 L62.9862889,16.0461982 Z" id="Shape"></path>
                    <path d="M73.9918338,10.2112171 L73.9918338,15.9694222 L72.5295586,15.9694222 L72.5295586,10.2112171 L67.6809619,0.537432477 L69.2971608,0.537432477 L72.837406,7.75438288 C72.9143678,7.83115895 72.9143678,7.98471108 72.9913297,8.13826322 C73.0682915,8.29181536 73.1452534,8.52214356 73.2222153,8.82924783 L73.2222153,8.82924783 C73.2991771,8.6756957 73.2991771,8.52214356 73.376139,8.36859143 C73.4531008,8.21503929 73.5300627,7.98471108 73.6839864,7.75438288 L77.3781553,0.537432477 L78.9173923,0.537432477 L73.9918338,10.2112171 Z" id="Shape"></path>
                    <path d="M100.081902,16.0461982 L91.539136,3.68525127 C91.4621742,3.53169913 91.3082505,3.378147 91.2312886,3.22459486 C91.1543268,3.07104272 91.0773649,2.91749059 91.0004031,2.76393845 L90.9234412,2.76393845 L90.9234412,3.30137093 L90.9234412,4.14590768 L90.9234412,16.1229743 L89.461166,16.1229743 L89.461166,0.614208545 L91.0773649,0.614208545 L99.5431686,12.8216034 C99.6970923,13.0519316 99.7740542,13.2054837 99.9279779,13.3590359 C100.00494,13.512588 100.158863,13.6661401 100.235825,13.8196923 L100.312787,13.8196923 C100.312787,13.5893641 100.235825,13.2822598 100.235825,13.0519316 L100.235825,12.0538427 L100.235825,0.614208545 L101.6981,0.614208545 L101.6981,16.0461982 L100.081902,16.0461982 L100.081902,16.0461982 Z" id="Shape"></path>
                    <path d="M112.703645,16.2765264 C111.626179,16.2765264 110.548713,16.0461982 109.702133,15.6623179 C108.855553,15.2784376 108.085934,14.7410051 107.470239,13.9732444 C106.854545,13.2054837 106.392773,12.437723 106.007964,11.5164102 C105.700117,10.5950974 105.469231,9.52023245 105.469231,8.44536749 C105.469231,7.2169504 105.623155,6.14208545 106.007964,5.14399656 C106.315812,4.14590768 106.854545,3.30137093 107.470239,2.61038632 C108.085934,1.9194017 108.855553,1.30519316 109.856057,0.921312817 C110.779599,0.537432477 111.857065,0.307104272 113.011493,0.307104272 C114.088959,0.307104272 115.089463,0.537432477 115.936043,0.921312817 C116.782623,1.30519316 117.552242,1.84262563 118.167937,2.53361025 C118.783632,3.22459486 119.245403,4.06913161 119.55325,4.99044443 C119.861098,5.91175725 120.015021,6.9866222 120.015021,8.06148715 C120.015021,9.21312817 119.861098,10.2879931 119.55325,11.286082 C119.245403,12.2841709 118.783632,13.1287076 118.167937,13.8964683 C117.552242,14.664229 116.782623,15.2016615 115.859081,15.5855418 C114.935539,16.0461982 113.935035,16.2765264 112.703645,16.2765264 Z M112.857569,1.61229743 C111.934027,1.61229743 111.087446,1.76584957 110.39479,2.14972991 C109.702133,2.53361025 109.086438,2.99426666 108.547705,3.6084752 C108.085934,4.22268375 107.701125,4.91366836 107.393278,5.75820511 C107.162392,6.60274186 107.008468,7.44727861 107.008468,8.36859143 C107.008468,9.21312817 107.08543,10.0576649 107.316316,10.9022017 C107.547201,11.6699624 107.932011,12.437723 108.393782,13.0519316 C108.855553,13.6661401 109.471248,14.1267965 110.163904,14.5106769 C110.856561,14.8945572 111.703141,15.0481094 112.703645,15.0481094 C113.704149,15.0481094 114.55073,14.8945572 115.243386,14.5106769 C115.936043,14.2035726 116.551738,13.7429162 117.090471,13.1287076 C117.629204,12.5144991 117.937051,11.8235145 118.167937,10.9789777 C118.398822,10.134441 118.552746,9.28990424 118.552746,8.29181536 C118.552746,7.37050254 118.475784,6.52596579 118.244899,5.75820511 C118.014013,4.91366836 117.706166,4.22268375 117.244395,3.6084752 C116.782623,2.99426666 116.166929,2.53361025 115.474272,2.14972991 C114.704653,1.84262563 113.858073,1.61229743 112.857569,1.61229743 Z" id="Shape"></path>
                    <path d="M128.788672,16.0461982 L127.403359,16.0461982 L121.785144,0.614208545 L123.401343,0.614208545 L127.788168,12.9751555 C127.86513,13.2054837 127.942092,13.4358119 128.019054,13.6661401 C128.096016,13.8964683 128.096016,14.1267965 128.172978,14.3571247 L128.249939,14.3571247 C128.249939,14.1267965 128.326901,13.9732444 128.403863,13.6661401 C128.480825,13.4358119 128.557787,13.1287076 128.634749,12.8983794 L133.175498,0.614208545 L134.714735,0.614208545 L128.788672,16.0461982 Z" id="Shape"></path>
                    <path d="M148.567868,14.9713333 C146.951669,15.8926461 145.335471,16.2765264 143.488386,16.2765264 C142.333958,16.2765264 141.333454,16.0461982 140.486874,15.6623179 C139.563332,15.2784376 138.870675,14.7410051 138.178018,14.0500205 C137.485362,13.3590359 137.100552,12.5144991 136.715743,11.5931863 C136.407896,10.6718735 136.17701,9.59700852 136.17701,8.44536749 C136.17701,7.67760681 136.253972,6.9866222 136.407896,6.29563759 C136.561819,5.60465297 136.792705,4.91366836 137.100552,4.37623588 C137.4084,3.83880341 137.793209,3.22459486 138.25498,2.68716238 C138.716751,2.22650598 139.255484,1.76584957 139.794217,1.38196923 C140.409912,0.998088886 141.025607,0.767760681 141.718264,0.537432477 C142.41092,0.307104272 143.180539,0.230328204 144.027119,0.230328204 C145.566356,0.230328204 146.951669,0.537432477 148.106097,1.07486495 L148.106097,2.68716238 C146.797746,1.9194017 145.335471,1.61229743 143.873195,1.61229743 C142.949653,1.61229743 142.103073,1.76584957 141.333454,2.14972991 C140.563836,2.45683418 139.948141,2.99426666 139.409408,3.53169913 C138.870675,4.06913161 138.485866,4.83689229 138.178018,5.68142904 C137.870171,6.52596579 137.716247,7.37050254 137.716247,8.36859143 C137.716247,9.28990424 137.870171,10.2112171 138.101057,10.9789777 C138.331942,11.8235145 138.716751,12.5144991 139.255484,13.0519316 C139.794217,13.5893641 140.409912,14.1267965 141.102569,14.4339008 C141.872187,14.7410051 142.718768,14.8945572 143.64231,14.8945572 C144.950661,14.8945572 146.105089,14.5874529 147.028631,14.0500205 L147.028631,9.36668031 L143.488386,9.36668031 L143.488386,8.06148715 L148.413945,8.06148715 L148.413945,14.9713333 L148.567868,14.9713333 L148.567868,14.9713333 Z" id="Shape"></path>
                    <path d="M159.111642,16.2765264 C158.034176,16.2765264 156.95671,16.0461982 156.11013,15.6623179 C155.26355,15.2784376 154.493931,14.7410051 153.878236,13.9732444 C153.262541,13.2054837 152.80077,12.437723 152.415961,11.5164102 C152.108114,10.5950974 151.877228,9.52023245 151.877228,8.44536749 C151.877228,7.2169504 152.031152,6.14208545 152.415961,5.14399656 C152.723808,4.14590768 153.262541,3.30137093 153.878236,2.61038632 C154.493931,1.9194017 155.26355,1.30519316 156.264054,0.921312817 C157.187596,0.537432477 158.265062,0.307104272 159.41949,0.307104272 C160.496955,0.307104272 161.49746,0.537432477 162.34404,0.921312817 C163.19062,1.30519316 163.960239,1.84262563 164.575934,2.53361025 C165.191628,3.22459486 165.6534,4.06913161 165.961247,4.99044443 C166.269094,5.91175725 166.423018,6.9866222 166.423018,8.06148715 C166.423018,9.21312817 166.269094,10.2879931 165.961247,11.286082 C165.6534,12.2841709 165.191628,13.1287076 164.575934,13.8964683 C163.960239,14.664229 163.19062,15.2016615 162.267078,15.5855418 C161.343536,16.0461982 160.343032,16.2765264 159.111642,16.2765264 Z M159.265566,1.61229743 C158.342024,1.61229743 157.495443,1.76584957 156.802787,2.14972991 C156.11013,2.53361025 155.494435,2.99426666 154.955702,3.6084752 C154.493931,4.22268375 154.109122,4.91366836 153.801274,5.75820511 C153.570389,6.60274186 153.416465,7.44727861 153.416465,8.36859143 C153.416465,9.21312817 153.493427,10.0576649 153.724312,10.9022017 C153.955198,11.6699624 154.340007,12.437723 154.801778,13.0519316 C155.26355,13.6661401 155.879244,14.1267965 156.571901,14.5106769 C157.264558,14.8945572 158.111138,15.0481094 159.111642,15.0481094 C160.112146,15.0481094 160.958727,14.8945572 161.651383,14.5106769 C162.34404,14.2035726 162.959735,13.7429162 163.498468,13.1287076 C164.037201,12.5144991 164.345048,11.8235145 164.575934,10.9789777 C164.806819,10.134441 164.960743,9.28990424 164.960743,8.29181536 C164.960743,7.37050254 164.883781,6.52596579 164.652895,5.75820511 C164.42201,4.91366836 164.114162,4.22268375 163.652391,3.6084752 C163.19062,2.99426666 162.574925,2.53361025 161.882269,2.14972991 C161.11265,1.84262563 160.26607,1.61229743 159.265566,1.61229743 Z" id="Shape"></path>
                    <path d="M178.813876,16.0461982 L176.505021,11.5931863 C176.274135,11.1325299 176.04325,10.8254256 175.812364,10.5183213 C175.581478,10.2112171 175.350593,9.98088886 175.119707,9.82733672 C174.888822,9.67378458 174.657936,9.52023245 174.350089,9.44345638 C174.042241,9.36668031 173.811356,9.36668031 173.503508,9.36668031 L171.810348,9.36668031 L171.810348,16.0461982 L170.425034,16.0461982 L170.425034,0.614208545 L174.888822,0.614208545 C175.504517,0.614208545 176.04325,0.690984613 176.581983,0.844536749 C177.120715,0.998088886 177.582487,1.30519316 178.044258,1.61229743 C178.506029,1.9194017 178.813876,2.38005811 179.044762,2.91749059 C179.275647,3.45492307 179.429571,3.99235554 179.429571,4.68334016 C179.429571,5.22077263 179.352609,5.75820511 179.198685,6.21886152 C179.044762,6.67951793 178.813876,7.06339827 178.506029,7.44727861 C178.198181,7.83115895 177.813372,8.13826322 177.428563,8.36859143 C176.966792,8.59891963 176.505021,8.82924783 175.966288,8.9060239 L175.966288,8.98279997 C176.197173,9.05957604 176.351097,9.21312817 176.505021,9.28990424 C176.658944,9.44345638 176.812868,9.59700852 177.043754,9.75056065 C177.197677,9.98088886 177.351601,10.134441 177.505525,10.4415453 C177.659448,10.6718735 177.813372,10.9789777 177.967296,11.286082 L180.583999,16.0461982 L178.813876,16.0461982 L178.813876,16.0461982 Z M171.810348,1.9194017 L171.810348,7.98471108 L174.350089,7.98471108 C174.888822,7.98471108 175.350593,7.90793502 175.735402,7.75438288 C176.197173,7.60083074 176.505021,7.37050254 176.812868,7.14017434 C177.120715,6.90984613 177.351601,6.52596579 177.505525,6.14208545 C177.659448,5.75820511 177.73641,5.2975487 177.73641,4.83689229 C177.73641,3.91557947 177.428563,3.22459486 176.88983,2.68716238 C176.274135,2.14972991 175.504517,1.9194017 174.350089,1.9194017 L171.810348,1.9194017 L171.810348,1.9194017 Z" id="Shape"></path>
                    <path d="M189.973345,16.2765264 C188.895879,16.2765264 187.818413,16.0461982 186.971833,15.6623179 C186.125252,15.2784376 185.355634,14.7410051 184.739939,13.9732444 C184.124244,13.2054837 183.662473,12.437723 183.277664,11.5164102 C182.969816,10.5950974 182.738931,9.52023245 182.738931,8.44536749 C182.738931,7.2169504 182.892854,6.14208545 183.277664,5.14399656 C183.585511,4.14590768 184.124244,3.30137093 184.739939,2.61038632 C185.355634,1.9194017 186.125252,1.30519316 187.125756,0.921312817 C188.049298,0.537432477 189.126764,0.307104272 190.281192,0.307104272 C191.358658,0.307104272 192.359162,0.537432477 193.205743,0.921312817 C194.052323,1.30519316 194.821941,1.84262563 195.437636,2.53361025 C196.053331,3.22459486 196.515102,4.06913161 196.82295,4.99044443 C197.130797,5.91175725 197.284721,6.9866222 197.284721,8.06148715 C197.284721,9.21312817 197.130797,10.2879931 196.82295,11.286082 C196.515102,12.2841709 196.053331,13.1287076 195.437636,13.8964683 C194.821941,14.664229 194.052323,15.2016615 193.128781,15.5855418 C192.205238,16.0461982 191.127773,16.2765264 189.973345,16.2765264 Z M190.050307,1.61229743 C189.126764,1.61229743 188.280184,1.76584957 187.587527,2.14972991 C186.894871,2.53361025 186.279176,2.99426666 185.740443,3.6084752 C185.278672,4.22268375 184.893863,4.91366836 184.586015,5.75820511 C184.35513,6.60274186 184.201206,7.44727861 184.201206,8.36859143 C184.201206,9.21312817 184.278168,10.0576649 184.509053,10.9022017 C184.739939,11.6699624 185.124748,12.437723 185.586519,13.0519316 C186.04829,13.6661401 186.663985,14.1267965 187.356642,14.5106769 C188.049298,14.8945572 188.895879,15.0481094 189.896383,15.0481094 C190.896887,15.0481094 191.743467,14.8945572 192.436124,14.5106769 C193.128781,14.2035726 193.744476,13.7429162 194.283208,13.1287076 C194.821941,12.5144991 195.129789,11.8235145 195.360674,10.9789777 C195.59156,10.134441 195.745484,9.28990424 195.745484,8.29181536 C195.745484,7.37050254 195.668522,6.52596579 195.437636,5.75820511 C195.206751,4.91366836 194.898903,4.22268375 194.437132,3.6084752 C193.975361,2.99426666 193.359666,2.53361025 192.66701,2.14972991 C191.897391,1.84262563 191.050811,1.61229743 190.050307,1.61229743 Z" id="Shape"></path>
                    <path d="M201.209775,16.0461982 L201.209775,0.614208545 L205.288753,0.614208545 C207.905456,0.614208545 209.906464,1.22841709 211.291778,2.53361025 C212.677091,3.76202734 213.292786,5.68142904 213.292786,8.13826322 C213.292786,9.28990424 213.138862,10.4415453 212.754053,11.3628581 C212.369244,12.360947 211.830511,13.2054837 211.137854,13.8964683 C210.445197,14.5874529 209.598617,15.1248854 208.521151,15.5087658 C207.520647,15.8926461 206.366219,16.0461982 205.057868,16.0461982 L201.209775,16.0461982 Z M202.67205,1.9194017 L202.67205,14.7410051 L205.057868,14.7410051 C206.135334,14.7410051 207.058876,14.5874529 207.905456,14.2803487 C208.752037,13.9732444 209.444693,13.5893641 210.060388,13.0519316 C210.676083,12.5144991 211.060892,11.8235145 211.36874,10.9789777 C211.676587,10.134441 211.830511,9.21312817 211.830511,8.13826322 C211.830511,3.99235554 209.598617,1.9194017 205.211791,1.9194017 L202.67205,1.9194017 L202.67205,1.9194017 Z" id="Shape"></path>
                </g>
            </g>
        </g>
    </g>
</svg>