<?xml version="1.0" encoding="UTF-8"?><!DOCTYPE svg PUBLIC "-//W3C//DTD SVG 1.1//EN" "http://www.w3.org/Graphics/SVG/1.1/DTD/svg11.dtd"><svg xmlns="http://www.w3.org/2000/svg" xmlns:xlink="http://www.w3.org/1999/xlink" version="1.1" width="24" height="24" viewBox="0 0 24 24"><path d="M19.3 6h-3.7v5.1l-1.8-3.3h-3.8l-1.8 3.4v-5.2h-3.7v12h3.7l3.7-6.8 3.7 6.8h3.7z"/><path d="M2.3 4.2h4.1v-2.4h-5.5c-0.5 0-0.9 0.4-0.9 0.9v18.4c0 0.5 0.4 1 0.9 1h5.5v-2.3h-4.1v-15.6z"/><path d="M23 1.8h-5.5v2.4h4.1v15.7h-4.1v2.3h5.5c0.5 0 0.9-0.5 0.9-1v-18.5c0-0.5-0.4-0.9-0.9-0.9z"/></svg>